ISO-10303-21;
HEADER;
/* Generated by software containing ST-Developer
 * from STEP Tools, Inc. (www.steptools.com) 
 */

FILE_DESCRIPTION(
/* description */ (''),
/* implementation_level */ '2;1');

FILE_NAME(
/* name */ 'Team 5 Mayank Box.step',
/* time_stamp */ '2026-05-30T15:24:15+05:30',
/* author */ (''),
/* organization */ (''),
/* preprocessor_version */ 'ST-DEVELOPER v20.1',
/* originating_system */ 'Autodesk Translation Framework v15.8.0.0',
/* authorisation */ '');

FILE_SCHEMA (('AUTOMOTIVE_DESIGN { 1 0 10303 214 3 1 1 }'));
ENDSEC;

DATA;
#10=MECHANICAL_DESIGN_GEOMETRIC_PRESENTATION_REPRESENTATION('',(#13,#14,
#15,#16,#17),#1929);
#11=SHAPE_REPRESENTATION_RELATIONSHIP('SRR','None',#1936,#12);
#12=ADVANCED_BREP_SHAPE_REPRESENTATION('',(#18,#19,#20,#21,#22),#1928);
#13=STYLED_ITEM('',(#1945),#18);
#14=STYLED_ITEM('',(#1945),#19);
#15=STYLED_ITEM('',(#1945),#20);
#16=STYLED_ITEM('',(#1945),#21);
#17=STYLED_ITEM('',(#1945),#22);
#18=MANIFOLD_SOLID_BREP('Body2',#1157);
#19=MANIFOLD_SOLID_BREP('Body6',#1158);
#20=MANIFOLD_SOLID_BREP('Body7',#1159);
#21=MANIFOLD_SOLID_BREP('Body8',#1160);
#22=MANIFOLD_SOLID_BREP('Body9',#1161);
#23=FACE_BOUND('',#151,.T.);
#24=FACE_BOUND('',#152,.T.);
#25=FACE_BOUND('',#153,.T.);
#26=FACE_BOUND('',#154,.T.);
#27=FACE_BOUND('',#155,.T.);
#28=FACE_BOUND('',#157,.T.);
#29=FACE_BOUND('',#182,.T.);
#30=CIRCLE('',#1180,3.);
#31=CIRCLE('',#1181,3.);
#32=CIRCLE('',#1183,3.);
#33=CIRCLE('',#1184,3.);
#34=CIRCLE('',#1185,3.);
#35=CIRCLE('',#1186,1.40000000000001);
#36=CIRCLE('',#1187,1.40000000000001);
#37=CIRCLE('',#1188,1.40000000000001);
#38=CIRCLE('',#1189,1.40000000000001);
#39=CIRCLE('',#1192,3.);
#40=CIRCLE('',#1194,3.);
#41=CIRCLE('',#1197,3.);
#42=CIRCLE('',#1201,1.40000000000001);
#43=CIRCLE('',#1205,1.40000000000001);
#44=CIRCLE('',#1211,1.40000000000001);
#45=CIRCLE('',#1218,1.40000000000001);
#46=CIRCLE('',#1227,2.);
#47=CIRCLE('',#1228,2.);
#48=CIRCLE('',#1231,2.);
#49=CIRCLE('',#1233,2.);
#50=CIRCLE('',#1239,2.);
#51=CIRCLE('',#1240,2.);
#52=CIRCLE('',#1243,2.);
#53=CIRCLE('',#1245,2.);
#54=CIRCLE('',#1251,2.);
#55=CIRCLE('',#1252,2.);
#56=CIRCLE('',#1255,2.);
#57=CIRCLE('',#1257,2.);
#58=CIRCLE('',#1263,2.);
#59=CIRCLE('',#1264,2.);
#60=CIRCLE('',#1267,2.);
#61=CIRCLE('',#1269,2.);
#62=CYLINDRICAL_SURFACE('',#1179,3.);
#63=CYLINDRICAL_SURFACE('',#1191,3.);
#64=CYLINDRICAL_SURFACE('',#1193,3.);
#65=CYLINDRICAL_SURFACE('',#1196,3.);
#66=CYLINDRICAL_SURFACE('',#1200,1.40000000000001);
#67=CYLINDRICAL_SURFACE('',#1204,1.40000000000001);
#68=CYLINDRICAL_SURFACE('',#1210,1.40000000000001);
#69=CYLINDRICAL_SURFACE('',#1217,1.40000000000001);
#70=CYLINDRICAL_SURFACE('',#1226,2.);
#71=CYLINDRICAL_SURFACE('',#1232,2.);
#72=CYLINDRICAL_SURFACE('',#1238,2.);
#73=CYLINDRICAL_SURFACE('',#1244,2.);
#74=CYLINDRICAL_SURFACE('',#1250,2.);
#75=CYLINDRICAL_SURFACE('',#1256,2.);
#76=CYLINDRICAL_SURFACE('',#1262,2.);
#77=CYLINDRICAL_SURFACE('',#1268,2.);
#78=FACE_OUTER_BOUND('',#145,.T.);
#79=FACE_OUTER_BOUND('',#146,.T.);
#80=FACE_OUTER_BOUND('',#147,.T.);
#81=FACE_OUTER_BOUND('',#148,.T.);
#82=FACE_OUTER_BOUND('',#149,.T.);
#83=FACE_OUTER_BOUND('',#150,.T.);
#84=FACE_OUTER_BOUND('',#156,.T.);
#85=FACE_OUTER_BOUND('',#158,.T.);
#86=FACE_OUTER_BOUND('',#159,.T.);
#87=FACE_OUTER_BOUND('',#160,.T.);
#88=FACE_OUTER_BOUND('',#161,.T.);
#89=FACE_OUTER_BOUND('',#162,.T.);
#90=FACE_OUTER_BOUND('',#163,.T.);
#91=FACE_OUTER_BOUND('',#164,.T.);
#92=FACE_OUTER_BOUND('',#165,.T.);
#93=FACE_OUTER_BOUND('',#166,.T.);
#94=FACE_OUTER_BOUND('',#167,.T.);
#95=FACE_OUTER_BOUND('',#168,.T.);
#96=FACE_OUTER_BOUND('',#169,.T.);
#97=FACE_OUTER_BOUND('',#170,.T.);
#98=FACE_OUTER_BOUND('',#171,.T.);
#99=FACE_OUTER_BOUND('',#172,.T.);
#100=FACE_OUTER_BOUND('',#173,.T.);
#101=FACE_OUTER_BOUND('',#174,.T.);
#102=FACE_OUTER_BOUND('',#175,.T.);
#103=FACE_OUTER_BOUND('',#176,.T.);
#104=FACE_OUTER_BOUND('',#177,.T.);
#105=FACE_OUTER_BOUND('',#178,.T.);
#106=FACE_OUTER_BOUND('',#179,.T.);
#107=FACE_OUTER_BOUND('',#180,.T.);
#108=FACE_OUTER_BOUND('',#181,.T.);
#109=FACE_OUTER_BOUND('',#183,.T.);
#110=FACE_OUTER_BOUND('',#184,.T.);
#111=FACE_OUTER_BOUND('',#185,.T.);
#112=FACE_OUTER_BOUND('',#186,.T.);
#113=FACE_OUTER_BOUND('',#187,.T.);
#114=FACE_OUTER_BOUND('',#188,.T.);
#115=FACE_OUTER_BOUND('',#189,.T.);
#116=FACE_OUTER_BOUND('',#190,.T.);
#117=FACE_OUTER_BOUND('',#191,.T.);
#118=FACE_OUTER_BOUND('',#192,.T.);
#119=FACE_OUTER_BOUND('',#193,.T.);
#120=FACE_OUTER_BOUND('',#194,.T.);
#121=FACE_OUTER_BOUND('',#195,.T.);
#122=FACE_OUTER_BOUND('',#196,.T.);
#123=FACE_OUTER_BOUND('',#197,.T.);
#124=FACE_OUTER_BOUND('',#198,.T.);
#125=FACE_OUTER_BOUND('',#199,.T.);
#126=FACE_OUTER_BOUND('',#200,.T.);
#127=FACE_OUTER_BOUND('',#201,.T.);
#128=FACE_OUTER_BOUND('',#202,.T.);
#129=FACE_OUTER_BOUND('',#203,.T.);
#130=FACE_OUTER_BOUND('',#204,.T.);
#131=FACE_OUTER_BOUND('',#205,.T.);
#132=FACE_OUTER_BOUND('',#206,.T.);
#133=FACE_OUTER_BOUND('',#207,.T.);
#134=FACE_OUTER_BOUND('',#208,.T.);
#135=FACE_OUTER_BOUND('',#209,.T.);
#136=FACE_OUTER_BOUND('',#210,.T.);
#137=FACE_OUTER_BOUND('',#211,.T.);
#138=FACE_OUTER_BOUND('',#212,.T.);
#139=FACE_OUTER_BOUND('',#213,.T.);
#140=FACE_OUTER_BOUND('',#214,.T.);
#141=FACE_OUTER_BOUND('',#215,.T.);
#142=FACE_OUTER_BOUND('',#216,.T.);
#143=FACE_OUTER_BOUND('',#217,.T.);
#144=FACE_OUTER_BOUND('',#218,.T.);
#145=EDGE_LOOP('',(#727,#728,#729,#730));
#146=EDGE_LOOP('',(#731,#732,#733,#734));
#147=EDGE_LOOP('',(#735,#736,#737,#738));
#148=EDGE_LOOP('',(#739,#740,#741,#742));
#149=EDGE_LOOP('',(#743,#744,#745,#746));
#150=EDGE_LOOP('',(#747,#748,#749,#750,#751,#752,#753,#754));
#151=EDGE_LOOP('',(#755));
#152=EDGE_LOOP('',(#756));
#153=EDGE_LOOP('',(#757));
#154=EDGE_LOOP('',(#758));
#155=EDGE_LOOP('',(#759,#760,#761,#762,#763,#764,#765,#766,#767,#768,#769,
#770));
#156=EDGE_LOOP('',(#771,#772,#773,#774));
#157=EDGE_LOOP('',(#775,#776,#777,#778));
#158=EDGE_LOOP('',(#779,#780,#781,#782));
#159=EDGE_LOOP('',(#783,#784,#785,#786));
#160=EDGE_LOOP('',(#787,#788,#789,#790));
#161=EDGE_LOOP('',(#791,#792,#793,#794));
#162=EDGE_LOOP('',(#795,#796,#797,#798));
#163=EDGE_LOOP('',(#799,#800,#801,#802));
#164=EDGE_LOOP('',(#803,#804,#805,#806));
#165=EDGE_LOOP('',(#807,#808,#809,#810));
#166=EDGE_LOOP('',(#811));
#167=EDGE_LOOP('',(#812,#813,#814,#815));
#168=EDGE_LOOP('',(#816,#817,#818,#819));
#169=EDGE_LOOP('',(#820,#821,#822,#823));
#170=EDGE_LOOP('',(#824,#825,#826,#827));
#171=EDGE_LOOP('',(#828,#829,#830,#831,#832,#833,#834,#835,#836,#837,#838,
#839));
#172=EDGE_LOOP('',(#840,#841,#842,#843));
#173=EDGE_LOOP('',(#844,#845,#846,#847));
#174=EDGE_LOOP('',(#848,#849,#850,#851));
#175=EDGE_LOOP('',(#852,#853,#854,#855));
#176=EDGE_LOOP('',(#856));
#177=EDGE_LOOP('',(#857,#858,#859,#860));
#178=EDGE_LOOP('',(#861,#862,#863,#864));
#179=EDGE_LOOP('',(#865,#866,#867,#868));
#180=EDGE_LOOP('',(#869));
#181=EDGE_LOOP('',(#870,#871,#872,#873));
#182=EDGE_LOOP('',(#874,#875,#876,#877));
#183=EDGE_LOOP('',(#878,#879,#880,#881));
#184=EDGE_LOOP('',(#882,#883,#884,#885));
#185=EDGE_LOOP('',(#886));
#186=EDGE_LOOP('',(#887,#888,#889,#890,#891,#892,#893,#894));
#187=EDGE_LOOP('',(#895,#896,#897,#898));
#188=EDGE_LOOP('',(#899,#900,#901,#902));
#189=EDGE_LOOP('',(#903,#904,#905,#906,#907,#908));
#190=EDGE_LOOP('',(#909,#910,#911,#912));
#191=EDGE_LOOP('',(#913,#914,#915,#916));
#192=EDGE_LOOP('',(#917,#918,#919,#920));
#193=EDGE_LOOP('',(#921,#922,#923,#924));
#194=EDGE_LOOP('',(#925,#926,#927,#928,#929,#930));
#195=EDGE_LOOP('',(#931,#932,#933,#934));
#196=EDGE_LOOP('',(#935,#936,#937,#938));
#197=EDGE_LOOP('',(#939,#940,#941,#942,#943,#944));
#198=EDGE_LOOP('',(#945,#946,#947,#948));
#199=EDGE_LOOP('',(#949,#950,#951,#952));
#200=EDGE_LOOP('',(#953,#954,#955,#956));
#201=EDGE_LOOP('',(#957,#958,#959,#960));
#202=EDGE_LOOP('',(#961,#962,#963,#964,#965,#966));
#203=EDGE_LOOP('',(#967,#968,#969,#970));
#204=EDGE_LOOP('',(#971,#972,#973,#974));
#205=EDGE_LOOP('',(#975,#976,#977,#978,#979,#980));
#206=EDGE_LOOP('',(#981,#982,#983,#984));
#207=EDGE_LOOP('',(#985,#986,#987,#988));
#208=EDGE_LOOP('',(#989,#990,#991,#992));
#209=EDGE_LOOP('',(#993,#994,#995,#996));
#210=EDGE_LOOP('',(#997,#998,#999,#1000,#1001,#1002));
#211=EDGE_LOOP('',(#1003,#1004,#1005,#1006));
#212=EDGE_LOOP('',(#1007,#1008,#1009,#1010));
#213=EDGE_LOOP('',(#1011,#1012,#1013,#1014,#1015,#1016));
#214=EDGE_LOOP('',(#1017,#1018,#1019,#1020));
#215=EDGE_LOOP('',(#1021,#1022,#1023,#1024));
#216=EDGE_LOOP('',(#1025,#1026,#1027,#1028));
#217=EDGE_LOOP('',(#1029,#1030,#1031,#1032));
#218=EDGE_LOOP('',(#1033,#1034,#1035,#1036,#1037,#1038));
#219=LINE('',#1602,#343);
#220=LINE('',#1604,#344);
#221=LINE('',#1606,#345);
#222=LINE('',#1607,#346);
#223=LINE('',#1610,#347);
#224=LINE('',#1612,#348);
#225=LINE('',#1613,#349);
#226=LINE('',#1616,#350);
#227=LINE('',#1618,#351);
#228=LINE('',#1619,#352);
#229=LINE('',#1621,#353);
#230=LINE('',#1622,#354);
#231=LINE('',#1628,#355);
#232=LINE('',#1631,#356);
#233=LINE('',#1634,#357);
#234=LINE('',#1638,#358);
#235=LINE('',#1642,#359);
#236=LINE('',#1645,#360);
#237=LINE('',#1656,#361);
#238=LINE('',#1658,#362);
#239=LINE('',#1660,#363);
#240=LINE('',#1662,#364);
#241=LINE('',#1664,#365);
#242=LINE('',#1666,#366);
#243=LINE('',#1668,#367);
#244=LINE('',#1670,#368);
#245=LINE('',#1672,#369);
#246=LINE('',#1674,#370);
#247=LINE('',#1676,#371);
#248=LINE('',#1677,#372);
#249=LINE('',#1680,#373);
#250=LINE('',#1681,#374);
#251=LINE('',#1685,#375);
#252=LINE('',#1688,#376);
#253=LINE('',#1691,#377);
#254=LINE('',#1694,#378);
#255=LINE('',#1695,#379);
#256=LINE('',#1698,#380);
#257=LINE('',#1703,#381);
#258=LINE('',#1704,#382);
#259=LINE('',#1705,#383);
#260=LINE('',#1708,#384);
#261=LINE('',#1709,#385);
#262=LINE('',#1712,#386);
#263=LINE('',#1716,#387);
#264=LINE('',#1717,#388);
#265=LINE('',#1721,#389);
#266=LINE('',#1726,#390);
#267=LINE('',#1727,#391);
#268=LINE('',#1728,#392);
#269=LINE('',#1730,#393);
#270=LINE('',#1733,#394);
#271=LINE('',#1734,#395);
#272=LINE('',#1737,#396);
#273=LINE('',#1739,#397);
#274=LINE('',#1741,#398);
#275=LINE('',#1743,#399);
#276=LINE('',#1745,#400);
#277=LINE('',#1746,#401);
#278=LINE('',#1749,#402);
#279=LINE('',#1752,#403);
#280=LINE('',#1753,#404);
#281=LINE('',#1755,#405);
#282=LINE('',#1759,#406);
#283=LINE('',#1760,#407);
#284=LINE('',#1763,#408);
#285=LINE('',#1769,#409);
#286=LINE('',#1771,#410);
#287=LINE('',#1779,#411);
#288=LINE('',#1782,#412);
#289=LINE('',#1785,#413);
#290=LINE('',#1787,#414);
#291=LINE('',#1788,#415);
#292=LINE('',#1791,#416);
#293=LINE('',#1795,#417);
#294=LINE('',#1796,#418);
#295=LINE('',#1801,#419);
#296=LINE('',#1802,#420);
#297=LINE('',#1805,#421);
#298=LINE('',#1806,#422);
#299=LINE('',#1808,#423);
#300=LINE('',#1810,#424);
#301=LINE('',#1817,#425);
#302=LINE('',#1820,#426);
#303=LINE('',#1823,#427);
#304=LINE('',#1825,#428);
#305=LINE('',#1826,#429);
#306=LINE('',#1829,#430);
#307=LINE('',#1833,#431);
#308=LINE('',#1834,#432);
#309=LINE('',#1839,#433);
#310=LINE('',#1840,#434);
#311=LINE('',#1843,#435);
#312=LINE('',#1844,#436);
#313=LINE('',#1846,#437);
#314=LINE('',#1848,#438);
#315=LINE('',#1855,#439);
#316=LINE('',#1858,#440);
#317=LINE('',#1861,#441);
#318=LINE('',#1863,#442);
#319=LINE('',#1864,#443);
#320=LINE('',#1867,#444);
#321=LINE('',#1871,#445);
#322=LINE('',#1872,#446);
#323=LINE('',#1877,#447);
#324=LINE('',#1878,#448);
#325=LINE('',#1881,#449);
#326=LINE('',#1882,#450);
#327=LINE('',#1884,#451);
#328=LINE('',#1886,#452);
#329=LINE('',#1893,#453);
#330=LINE('',#1896,#454);
#331=LINE('',#1899,#455);
#332=LINE('',#1901,#456);
#333=LINE('',#1902,#457);
#334=LINE('',#1905,#458);
#335=LINE('',#1909,#459);
#336=LINE('',#1910,#460);
#337=LINE('',#1915,#461);
#338=LINE('',#1916,#462);
#339=LINE('',#1919,#463);
#340=LINE('',#1920,#464);
#341=LINE('',#1922,#465);
#342=LINE('',#1924,#466);
#343=VECTOR('',#1278,10.);
#344=VECTOR('',#1279,10.);
#345=VECTOR('',#1280,10.);
#346=VECTOR('',#1281,10.);
#347=VECTOR('',#1284,10.);
#348=VECTOR('',#1285,10.);
#349=VECTOR('',#1286,10.);
#350=VECTOR('',#1289,10.);
#351=VECTOR('',#1290,10.);
#352=VECTOR('',#1291,10.);
#353=VECTOR('',#1294,10.);
#354=VECTOR('',#1295,10.);
#355=VECTOR('',#1300,10.);
#356=VECTOR('',#1303,10.);
#357=VECTOR('',#1306,10.);
#358=VECTOR('',#1309,10.);
#359=VECTOR('',#1312,10.);
#360=VECTOR('',#1315,10.);
#361=VECTOR('',#1324,10.);
#362=VECTOR('',#1325,10.);
#363=VECTOR('',#1326,10.);
#364=VECTOR('',#1327,10.);
#365=VECTOR('',#1328,10.);
#366=VECTOR('',#1329,10.);
#367=VECTOR('',#1330,10.);
#368=VECTOR('',#1331,10.);
#369=VECTOR('',#1332,10.);
#370=VECTOR('',#1333,10.);
#371=VECTOR('',#1334,10.);
#372=VECTOR('',#1335,10.);
#373=VECTOR('',#1338,10.);
#374=VECTOR('',#1339,10.);
#375=VECTOR('',#1344,10.);
#376=VECTOR('',#1347,10.);
#377=VECTOR('',#1350,10.);
#378=VECTOR('',#1353,10.);
#379=VECTOR('',#1354,10.);
#380=VECTOR('',#1357,10.);
#381=VECTOR('',#1362,10.);
#382=VECTOR('',#1363,10.);
#383=VECTOR('',#1364,10.);
#384=VECTOR('',#1367,10.);
#385=VECTOR('',#1368,10.);
#386=VECTOR('',#1371,1.40000000000001);
#387=VECTOR('',#1376,10.);
#388=VECTOR('',#1377,10.);
#389=VECTOR('',#1382,1.40000000000001);
#390=VECTOR('',#1387,10.);
#391=VECTOR('',#1388,10.);
#392=VECTOR('',#1389,10.);
#393=VECTOR('',#1392,10.);
#394=VECTOR('',#1395,10.);
#395=VECTOR('',#1396,10.);
#396=VECTOR('',#1399,10.);
#397=VECTOR('',#1400,10.);
#398=VECTOR('',#1401,10.);
#399=VECTOR('',#1402,10.);
#400=VECTOR('',#1403,10.);
#401=VECTOR('',#1404,10.);
#402=VECTOR('',#1407,1.40000000000001);
#403=VECTOR('',#1412,10.);
#404=VECTOR('',#1413,10.);
#405=VECTOR('',#1416,10.);
#406=VECTOR('',#1423,10.);
#407=VECTOR('',#1424,10.);
#408=VECTOR('',#1427,1.40000000000001);
#409=VECTOR('',#1438,10.);
#410=VECTOR('',#1441,10.);
#411=VECTOR('',#1450,10.);
#412=VECTOR('',#1453,10.);
#413=VECTOR('',#1456,10.);
#414=VECTOR('',#1457,10.);
#415=VECTOR('',#1458,10.);
#416=VECTOR('',#1461,10.);
#417=VECTOR('',#1464,10.);
#418=VECTOR('',#1465,10.);
#419=VECTOR('',#1470,10.);
#420=VECTOR('',#1471,10.);
#421=VECTOR('',#1474,10.);
#422=VECTOR('',#1475,10.);
#423=VECTOR('',#1478,10.);
#424=VECTOR('',#1481,10.);
#425=VECTOR('',#1488,10.);
#426=VECTOR('',#1491,10.);
#427=VECTOR('',#1494,10.);
#428=VECTOR('',#1495,10.);
#429=VECTOR('',#1496,10.);
#430=VECTOR('',#1499,10.);
#431=VECTOR('',#1502,10.);
#432=VECTOR('',#1503,10.);
#433=VECTOR('',#1508,10.);
#434=VECTOR('',#1509,10.);
#435=VECTOR('',#1512,10.);
#436=VECTOR('',#1513,10.);
#437=VECTOR('',#1516,10.);
#438=VECTOR('',#1519,10.);
#439=VECTOR('',#1526,10.);
#440=VECTOR('',#1529,10.);
#441=VECTOR('',#1532,10.);
#442=VECTOR('',#1533,10.);
#443=VECTOR('',#1534,10.);
#444=VECTOR('',#1537,10.);
#445=VECTOR('',#1540,10.);
#446=VECTOR('',#1541,10.);
#447=VECTOR('',#1546,10.);
#448=VECTOR('',#1547,10.);
#449=VECTOR('',#1550,10.);
#450=VECTOR('',#1551,10.);
#451=VECTOR('',#1554,10.);
#452=VECTOR('',#1557,10.);
#453=VECTOR('',#1564,10.);
#454=VECTOR('',#1567,10.);
#455=VECTOR('',#1570,10.);
#456=VECTOR('',#1571,10.);
#457=VECTOR('',#1572,10.);
#458=VECTOR('',#1575,10.);
#459=VECTOR('',#1578,10.);
#460=VECTOR('',#1579,10.);
#461=VECTOR('',#1584,10.);
#462=VECTOR('',#1585,10.);
#463=VECTOR('',#1588,10.);
#464=VECTOR('',#1589,10.);
#465=VECTOR('',#1592,10.);
#466=VECTOR('',#1595,10.);
#467=VERTEX_POINT('',#1600);
#468=VERTEX_POINT('',#1601);
#469=VERTEX_POINT('',#1603);
#470=VERTEX_POINT('',#1605);
#471=VERTEX_POINT('',#1609);
#472=VERTEX_POINT('',#1611);
#473=VERTEX_POINT('',#1615);
#474=VERTEX_POINT('',#1617);
#475=VERTEX_POINT('',#1624);
#476=VERTEX_POINT('',#1625);
#477=VERTEX_POINT('',#1627);
#478=VERTEX_POINT('',#1629);
#479=VERTEX_POINT('',#1633);
#480=VERTEX_POINT('',#1635);
#481=VERTEX_POINT('',#1637);
#482=VERTEX_POINT('',#1639);
#483=VERTEX_POINT('',#1641);
#484=VERTEX_POINT('',#1643);
#485=VERTEX_POINT('',#1646);
#486=VERTEX_POINT('',#1648);
#487=VERTEX_POINT('',#1650);
#488=VERTEX_POINT('',#1652);
#489=VERTEX_POINT('',#1654);
#490=VERTEX_POINT('',#1655);
#491=VERTEX_POINT('',#1657);
#492=VERTEX_POINT('',#1659);
#493=VERTEX_POINT('',#1661);
#494=VERTEX_POINT('',#1663);
#495=VERTEX_POINT('',#1665);
#496=VERTEX_POINT('',#1667);
#497=VERTEX_POINT('',#1669);
#498=VERTEX_POINT('',#1671);
#499=VERTEX_POINT('',#1673);
#500=VERTEX_POINT('',#1675);
#501=VERTEX_POINT('',#1679);
#502=VERTEX_POINT('',#1683);
#503=VERTEX_POINT('',#1687);
#504=VERTEX_POINT('',#1689);
#505=VERTEX_POINT('',#1693);
#506=VERTEX_POINT('',#1697);
#507=VERTEX_POINT('',#1701);
#508=VERTEX_POINT('',#1702);
#509=VERTEX_POINT('',#1707);
#510=VERTEX_POINT('',#1711);
#511=VERTEX_POINT('',#1715);
#512=VERTEX_POINT('',#1720);
#513=VERTEX_POINT('',#1724);
#514=VERTEX_POINT('',#1725);
#515=VERTEX_POINT('',#1732);
#516=VERTEX_POINT('',#1736);
#517=VERTEX_POINT('',#1738);
#518=VERTEX_POINT('',#1740);
#519=VERTEX_POINT('',#1742);
#520=VERTEX_POINT('',#1744);
#521=VERTEX_POINT('',#1748);
#522=VERTEX_POINT('',#1762);
#523=VERTEX_POINT('',#1775);
#524=VERTEX_POINT('',#1776);
#525=VERTEX_POINT('',#1778);
#526=VERTEX_POINT('',#1780);
#527=VERTEX_POINT('',#1784);
#528=VERTEX_POINT('',#1786);
#529=VERTEX_POINT('',#1790);
#530=VERTEX_POINT('',#1792);
#531=VERTEX_POINT('',#1794);
#532=VERTEX_POINT('',#1798);
#533=VERTEX_POINT('',#1799);
#534=VERTEX_POINT('',#1804);
#535=VERTEX_POINT('',#1813);
#536=VERTEX_POINT('',#1814);
#537=VERTEX_POINT('',#1816);
#538=VERTEX_POINT('',#1818);
#539=VERTEX_POINT('',#1822);
#540=VERTEX_POINT('',#1824);
#541=VERTEX_POINT('',#1828);
#542=VERTEX_POINT('',#1830);
#543=VERTEX_POINT('',#1832);
#544=VERTEX_POINT('',#1836);
#545=VERTEX_POINT('',#1837);
#546=VERTEX_POINT('',#1842);
#547=VERTEX_POINT('',#1851);
#548=VERTEX_POINT('',#1852);
#549=VERTEX_POINT('',#1854);
#550=VERTEX_POINT('',#1856);
#551=VERTEX_POINT('',#1860);
#552=VERTEX_POINT('',#1862);
#553=VERTEX_POINT('',#1866);
#554=VERTEX_POINT('',#1868);
#555=VERTEX_POINT('',#1870);
#556=VERTEX_POINT('',#1874);
#557=VERTEX_POINT('',#1875);
#558=VERTEX_POINT('',#1880);
#559=VERTEX_POINT('',#1889);
#560=VERTEX_POINT('',#1890);
#561=VERTEX_POINT('',#1892);
#562=VERTEX_POINT('',#1894);
#563=VERTEX_POINT('',#1898);
#564=VERTEX_POINT('',#1900);
#565=VERTEX_POINT('',#1904);
#566=VERTEX_POINT('',#1906);
#567=VERTEX_POINT('',#1908);
#568=VERTEX_POINT('',#1912);
#569=VERTEX_POINT('',#1913);
#570=VERTEX_POINT('',#1918);
#571=EDGE_CURVE('',#467,#468,#219,.T.);
#572=EDGE_CURVE('',#469,#467,#220,.T.);
#573=EDGE_CURVE('',#470,#469,#221,.T.);
#574=EDGE_CURVE('',#470,#468,#222,.T.);
#575=EDGE_CURVE('',#468,#471,#223,.T.);
#576=EDGE_CURVE('',#472,#470,#224,.T.);
#577=EDGE_CURVE('',#472,#471,#225,.T.);
#578=EDGE_CURVE('',#471,#473,#226,.T.);
#579=EDGE_CURVE('',#474,#472,#227,.T.);
#580=EDGE_CURVE('',#474,#473,#228,.T.);
#581=EDGE_CURVE('',#473,#467,#229,.T.);
#582=EDGE_CURVE('',#469,#474,#230,.T.);
#583=EDGE_CURVE('',#475,#476,#30,.T.);
#584=EDGE_CURVE('',#476,#477,#231,.T.);
#585=EDGE_CURVE('',#477,#478,#31,.T.);
#586=EDGE_CURVE('',#478,#475,#232,.T.);
#587=EDGE_CURVE('',#475,#479,#233,.T.);
#588=EDGE_CURVE('',#480,#479,#32,.T.);
#589=EDGE_CURVE('',#480,#481,#234,.T.);
#590=EDGE_CURVE('',#482,#481,#33,.T.);
#591=EDGE_CURVE('',#482,#483,#235,.T.);
#592=EDGE_CURVE('',#484,#483,#34,.T.);
#593=EDGE_CURVE('',#484,#476,#236,.T.);
#594=EDGE_CURVE('',#485,#485,#35,.T.);
#595=EDGE_CURVE('',#486,#486,#36,.T.);
#596=EDGE_CURVE('',#487,#487,#37,.T.);
#597=EDGE_CURVE('',#488,#488,#38,.T.);
#598=EDGE_CURVE('',#489,#490,#237,.T.);
#599=EDGE_CURVE('',#490,#491,#238,.T.);
#600=EDGE_CURVE('',#491,#492,#239,.T.);
#601=EDGE_CURVE('',#492,#493,#240,.T.);
#602=EDGE_CURVE('',#493,#494,#241,.T.);
#603=EDGE_CURVE('',#494,#495,#242,.T.);
#604=EDGE_CURVE('',#495,#496,#243,.T.);
#605=EDGE_CURVE('',#496,#497,#244,.T.);
#606=EDGE_CURVE('',#497,#498,#245,.T.);
#607=EDGE_CURVE('',#498,#499,#246,.T.);
#608=EDGE_CURVE('',#499,#500,#247,.T.);
#609=EDGE_CURVE('',#500,#489,#248,.T.);
#610=EDGE_CURVE('',#478,#501,#249,.T.);
#611=EDGE_CURVE('',#479,#501,#250,.T.);
#612=EDGE_CURVE('',#501,#502,#39,.T.);
#613=EDGE_CURVE('',#502,#480,#251,.T.);
#614=EDGE_CURVE('',#483,#503,#252,.T.);
#615=EDGE_CURVE('',#503,#504,#40,.T.);
#616=EDGE_CURVE('',#504,#484,#253,.T.);
#617=EDGE_CURVE('',#505,#482,#254,.T.);
#618=EDGE_CURVE('',#505,#503,#255,.T.);
#619=EDGE_CURVE('',#481,#506,#256,.T.);
#620=EDGE_CURVE('',#506,#505,#41,.T.);
#621=EDGE_CURVE('',#507,#508,#257,.T.);
#622=EDGE_CURVE('',#507,#500,#258,.T.);
#623=EDGE_CURVE('',#508,#499,#259,.T.);
#624=EDGE_CURVE('',#509,#507,#260,.T.);
#625=EDGE_CURVE('',#489,#509,#261,.T.);
#626=EDGE_CURVE('',#485,#510,#262,.T.);
#627=EDGE_CURVE('',#510,#510,#42,.T.);
#628=EDGE_CURVE('',#511,#509,#263,.T.);
#629=EDGE_CURVE('',#511,#490,#264,.T.);
#630=EDGE_CURVE('',#486,#512,#265,.T.);
#631=EDGE_CURVE('',#512,#512,#43,.T.);
#632=EDGE_CURVE('',#513,#514,#266,.T.);
#633=EDGE_CURVE('',#492,#513,#267,.T.);
#634=EDGE_CURVE('',#514,#491,#268,.T.);
#635=EDGE_CURVE('',#514,#511,#269,.T.);
#636=EDGE_CURVE('',#515,#513,#270,.T.);
#637=EDGE_CURVE('',#515,#493,#271,.T.);
#638=EDGE_CURVE('',#508,#516,#272,.T.);
#639=EDGE_CURVE('',#516,#517,#273,.T.);
#640=EDGE_CURVE('',#517,#518,#274,.T.);
#641=EDGE_CURVE('',#518,#519,#275,.T.);
#642=EDGE_CURVE('',#519,#520,#276,.T.);
#643=EDGE_CURVE('',#520,#515,#277,.T.);
#644=EDGE_CURVE('',#487,#521,#278,.T.);
#645=EDGE_CURVE('',#521,#521,#44,.T.);
#646=EDGE_CURVE('',#498,#516,#279,.T.);
#647=EDGE_CURVE('',#517,#497,#280,.T.);
#648=EDGE_CURVE('',#518,#496,#281,.T.);
#649=EDGE_CURVE('',#495,#519,#282,.T.);
#650=EDGE_CURVE('',#520,#494,#283,.T.);
#651=EDGE_CURVE('',#488,#522,#284,.T.);
#652=EDGE_CURVE('',#522,#522,#45,.T.);
#653=EDGE_CURVE('',#502,#506,#285,.T.);
#654=EDGE_CURVE('',#504,#477,#286,.T.);
#655=EDGE_CURVE('',#523,#524,#46,.T.);
#656=EDGE_CURVE('',#524,#525,#287,.T.);
#657=EDGE_CURVE('',#525,#526,#47,.T.);
#658=EDGE_CURVE('',#526,#523,#288,.T.);
#659=EDGE_CURVE('',#526,#527,#289,.T.);
#660=EDGE_CURVE('',#527,#528,#290,.T.);
#661=EDGE_CURVE('',#523,#528,#291,.T.);
#662=EDGE_CURVE('',#529,#525,#292,.T.);
#663=EDGE_CURVE('',#530,#529,#48,.T.);
#664=EDGE_CURVE('',#531,#530,#293,.T.);
#665=EDGE_CURVE('',#527,#531,#294,.T.);
#666=EDGE_CURVE('',#532,#533,#49,.T.);
#667=EDGE_CURVE('',#533,#530,#295,.T.);
#668=EDGE_CURVE('',#529,#532,#296,.T.);
#669=EDGE_CURVE('',#534,#533,#297,.T.);
#670=EDGE_CURVE('',#531,#534,#298,.T.);
#671=EDGE_CURVE('',#532,#524,#299,.T.);
#672=EDGE_CURVE('',#528,#534,#300,.T.);
#673=EDGE_CURVE('',#535,#536,#50,.T.);
#674=EDGE_CURVE('',#536,#537,#301,.T.);
#675=EDGE_CURVE('',#537,#538,#51,.T.);
#676=EDGE_CURVE('',#538,#535,#302,.T.);
#677=EDGE_CURVE('',#539,#538,#303,.T.);
#678=EDGE_CURVE('',#539,#540,#304,.T.);
#679=EDGE_CURVE('',#535,#540,#305,.T.);
#680=EDGE_CURVE('',#537,#541,#306,.T.);
#681=EDGE_CURVE('',#542,#541,#52,.T.);
#682=EDGE_CURVE('',#542,#543,#307,.T.);
#683=EDGE_CURVE('',#543,#539,#308,.T.);
#684=EDGE_CURVE('',#544,#545,#53,.T.);
#685=EDGE_CURVE('',#545,#542,#309,.T.);
#686=EDGE_CURVE('',#541,#544,#310,.T.);
#687=EDGE_CURVE('',#546,#545,#311,.T.);
#688=EDGE_CURVE('',#543,#546,#312,.T.);
#689=EDGE_CURVE('',#540,#546,#313,.T.);
#690=EDGE_CURVE('',#544,#536,#314,.T.);
#691=EDGE_CURVE('',#547,#548,#54,.T.);
#692=EDGE_CURVE('',#548,#549,#315,.T.);
#693=EDGE_CURVE('',#549,#550,#55,.T.);
#694=EDGE_CURVE('',#550,#547,#316,.T.);
#695=EDGE_CURVE('',#551,#550,#317,.T.);
#696=EDGE_CURVE('',#551,#552,#318,.T.);
#697=EDGE_CURVE('',#547,#552,#319,.T.);
#698=EDGE_CURVE('',#549,#553,#320,.T.);
#699=EDGE_CURVE('',#554,#553,#56,.T.);
#700=EDGE_CURVE('',#554,#555,#321,.T.);
#701=EDGE_CURVE('',#555,#551,#322,.T.);
#702=EDGE_CURVE('',#556,#557,#57,.T.);
#703=EDGE_CURVE('',#557,#554,#323,.T.);
#704=EDGE_CURVE('',#553,#556,#324,.T.);
#705=EDGE_CURVE('',#558,#557,#325,.T.);
#706=EDGE_CURVE('',#555,#558,#326,.T.);
#707=EDGE_CURVE('',#552,#558,#327,.T.);
#708=EDGE_CURVE('',#556,#548,#328,.T.);
#709=EDGE_CURVE('',#559,#560,#58,.T.);
#710=EDGE_CURVE('',#560,#561,#329,.T.);
#711=EDGE_CURVE('',#561,#562,#59,.T.);
#712=EDGE_CURVE('',#562,#559,#330,.T.);
#713=EDGE_CURVE('',#562,#563,#331,.T.);
#714=EDGE_CURVE('',#563,#564,#332,.T.);
#715=EDGE_CURVE('',#559,#564,#333,.T.);
#716=EDGE_CURVE('',#565,#561,#334,.T.);
#717=EDGE_CURVE('',#566,#565,#60,.T.);
#718=EDGE_CURVE('',#567,#566,#335,.T.);
#719=EDGE_CURVE('',#563,#567,#336,.T.);
#720=EDGE_CURVE('',#568,#569,#61,.T.);
#721=EDGE_CURVE('',#569,#566,#337,.T.);
#722=EDGE_CURVE('',#565,#568,#338,.T.);
#723=EDGE_CURVE('',#570,#569,#339,.T.);
#724=EDGE_CURVE('',#567,#570,#340,.T.);
#725=EDGE_CURVE('',#568,#560,#341,.T.);
#726=EDGE_CURVE('',#564,#570,#342,.T.);
#727=ORIENTED_EDGE('',*,*,#571,.F.);
#728=ORIENTED_EDGE('',*,*,#572,.F.);
#729=ORIENTED_EDGE('',*,*,#573,.F.);
#730=ORIENTED_EDGE('',*,*,#574,.T.);
#731=ORIENTED_EDGE('',*,*,#575,.F.);
#732=ORIENTED_EDGE('',*,*,#574,.F.);
#733=ORIENTED_EDGE('',*,*,#576,.F.);
#734=ORIENTED_EDGE('',*,*,#577,.T.);
#735=ORIENTED_EDGE('',*,*,#578,.F.);
#736=ORIENTED_EDGE('',*,*,#577,.F.);
#737=ORIENTED_EDGE('',*,*,#579,.F.);
#738=ORIENTED_EDGE('',*,*,#580,.T.);
#739=ORIENTED_EDGE('',*,*,#581,.F.);
#740=ORIENTED_EDGE('',*,*,#580,.F.);
#741=ORIENTED_EDGE('',*,*,#582,.F.);
#742=ORIENTED_EDGE('',*,*,#572,.T.);
#743=ORIENTED_EDGE('',*,*,#583,.T.);
#744=ORIENTED_EDGE('',*,*,#584,.T.);
#745=ORIENTED_EDGE('',*,*,#585,.T.);
#746=ORIENTED_EDGE('',*,*,#586,.T.);
#747=ORIENTED_EDGE('',*,*,#583,.F.);
#748=ORIENTED_EDGE('',*,*,#587,.T.);
#749=ORIENTED_EDGE('',*,*,#588,.F.);
#750=ORIENTED_EDGE('',*,*,#589,.T.);
#751=ORIENTED_EDGE('',*,*,#590,.F.);
#752=ORIENTED_EDGE('',*,*,#591,.T.);
#753=ORIENTED_EDGE('',*,*,#592,.F.);
#754=ORIENTED_EDGE('',*,*,#593,.T.);
#755=ORIENTED_EDGE('',*,*,#594,.T.);
#756=ORIENTED_EDGE('',*,*,#595,.T.);
#757=ORIENTED_EDGE('',*,*,#596,.T.);
#758=ORIENTED_EDGE('',*,*,#597,.T.);
#759=ORIENTED_EDGE('',*,*,#598,.T.);
#760=ORIENTED_EDGE('',*,*,#599,.T.);
#761=ORIENTED_EDGE('',*,*,#600,.T.);
#762=ORIENTED_EDGE('',*,*,#601,.T.);
#763=ORIENTED_EDGE('',*,*,#602,.T.);
#764=ORIENTED_EDGE('',*,*,#603,.T.);
#765=ORIENTED_EDGE('',*,*,#604,.T.);
#766=ORIENTED_EDGE('',*,*,#605,.T.);
#767=ORIENTED_EDGE('',*,*,#606,.T.);
#768=ORIENTED_EDGE('',*,*,#607,.T.);
#769=ORIENTED_EDGE('',*,*,#608,.T.);
#770=ORIENTED_EDGE('',*,*,#609,.T.);
#771=ORIENTED_EDGE('',*,*,#586,.F.);
#772=ORIENTED_EDGE('',*,*,#610,.T.);
#773=ORIENTED_EDGE('',*,*,#611,.F.);
#774=ORIENTED_EDGE('',*,*,#587,.F.);
#775=ORIENTED_EDGE('',*,*,#579,.T.);
#776=ORIENTED_EDGE('',*,*,#576,.T.);
#777=ORIENTED_EDGE('',*,*,#573,.T.);
#778=ORIENTED_EDGE('',*,*,#582,.T.);
#779=ORIENTED_EDGE('',*,*,#588,.T.);
#780=ORIENTED_EDGE('',*,*,#611,.T.);
#781=ORIENTED_EDGE('',*,*,#612,.T.);
#782=ORIENTED_EDGE('',*,*,#613,.T.);
#783=ORIENTED_EDGE('',*,*,#592,.T.);
#784=ORIENTED_EDGE('',*,*,#614,.T.);
#785=ORIENTED_EDGE('',*,*,#615,.T.);
#786=ORIENTED_EDGE('',*,*,#616,.T.);
#787=ORIENTED_EDGE('',*,*,#614,.F.);
#788=ORIENTED_EDGE('',*,*,#591,.F.);
#789=ORIENTED_EDGE('',*,*,#617,.F.);
#790=ORIENTED_EDGE('',*,*,#618,.T.);
#791=ORIENTED_EDGE('',*,*,#590,.T.);
#792=ORIENTED_EDGE('',*,*,#619,.T.);
#793=ORIENTED_EDGE('',*,*,#620,.T.);
#794=ORIENTED_EDGE('',*,*,#617,.T.);
#795=ORIENTED_EDGE('',*,*,#621,.F.);
#796=ORIENTED_EDGE('',*,*,#622,.T.);
#797=ORIENTED_EDGE('',*,*,#608,.F.);
#798=ORIENTED_EDGE('',*,*,#623,.F.);
#799=ORIENTED_EDGE('',*,*,#624,.F.);
#800=ORIENTED_EDGE('',*,*,#625,.F.);
#801=ORIENTED_EDGE('',*,*,#609,.F.);
#802=ORIENTED_EDGE('',*,*,#622,.F.);
#803=ORIENTED_EDGE('',*,*,#594,.F.);
#804=ORIENTED_EDGE('',*,*,#626,.T.);
#805=ORIENTED_EDGE('',*,*,#627,.F.);
#806=ORIENTED_EDGE('',*,*,#626,.F.);
#807=ORIENTED_EDGE('',*,*,#625,.T.);
#808=ORIENTED_EDGE('',*,*,#628,.F.);
#809=ORIENTED_EDGE('',*,*,#629,.T.);
#810=ORIENTED_EDGE('',*,*,#598,.F.);
#811=ORIENTED_EDGE('',*,*,#627,.T.);
#812=ORIENTED_EDGE('',*,*,#595,.F.);
#813=ORIENTED_EDGE('',*,*,#630,.T.);
#814=ORIENTED_EDGE('',*,*,#631,.F.);
#815=ORIENTED_EDGE('',*,*,#630,.F.);
#816=ORIENTED_EDGE('',*,*,#632,.F.);
#817=ORIENTED_EDGE('',*,*,#633,.F.);
#818=ORIENTED_EDGE('',*,*,#600,.F.);
#819=ORIENTED_EDGE('',*,*,#634,.F.);
#820=ORIENTED_EDGE('',*,*,#635,.F.);
#821=ORIENTED_EDGE('',*,*,#634,.T.);
#822=ORIENTED_EDGE('',*,*,#599,.F.);
#823=ORIENTED_EDGE('',*,*,#629,.F.);
#824=ORIENTED_EDGE('',*,*,#633,.T.);
#825=ORIENTED_EDGE('',*,*,#636,.F.);
#826=ORIENTED_EDGE('',*,*,#637,.T.);
#827=ORIENTED_EDGE('',*,*,#601,.F.);
#828=ORIENTED_EDGE('',*,*,#621,.T.);
#829=ORIENTED_EDGE('',*,*,#638,.T.);
#830=ORIENTED_EDGE('',*,*,#639,.T.);
#831=ORIENTED_EDGE('',*,*,#640,.T.);
#832=ORIENTED_EDGE('',*,*,#641,.T.);
#833=ORIENTED_EDGE('',*,*,#642,.T.);
#834=ORIENTED_EDGE('',*,*,#643,.T.);
#835=ORIENTED_EDGE('',*,*,#636,.T.);
#836=ORIENTED_EDGE('',*,*,#632,.T.);
#837=ORIENTED_EDGE('',*,*,#635,.T.);
#838=ORIENTED_EDGE('',*,*,#628,.T.);
#839=ORIENTED_EDGE('',*,*,#624,.T.);
#840=ORIENTED_EDGE('',*,*,#596,.F.);
#841=ORIENTED_EDGE('',*,*,#644,.T.);
#842=ORIENTED_EDGE('',*,*,#645,.F.);
#843=ORIENTED_EDGE('',*,*,#644,.F.);
#844=ORIENTED_EDGE('',*,*,#639,.F.);
#845=ORIENTED_EDGE('',*,*,#646,.F.);
#846=ORIENTED_EDGE('',*,*,#606,.F.);
#847=ORIENTED_EDGE('',*,*,#647,.F.);
#848=ORIENTED_EDGE('',*,*,#640,.F.);
#849=ORIENTED_EDGE('',*,*,#647,.T.);
#850=ORIENTED_EDGE('',*,*,#605,.F.);
#851=ORIENTED_EDGE('',*,*,#648,.F.);
#852=ORIENTED_EDGE('',*,*,#623,.T.);
#853=ORIENTED_EDGE('',*,*,#607,.F.);
#854=ORIENTED_EDGE('',*,*,#646,.T.);
#855=ORIENTED_EDGE('',*,*,#638,.F.);
#856=ORIENTED_EDGE('',*,*,#631,.T.);
#857=ORIENTED_EDGE('',*,*,#642,.F.);
#858=ORIENTED_EDGE('',*,*,#649,.F.);
#859=ORIENTED_EDGE('',*,*,#603,.F.);
#860=ORIENTED_EDGE('',*,*,#650,.F.);
#861=ORIENTED_EDGE('',*,*,#597,.F.);
#862=ORIENTED_EDGE('',*,*,#651,.T.);
#863=ORIENTED_EDGE('',*,*,#652,.F.);
#864=ORIENTED_EDGE('',*,*,#651,.F.);
#865=ORIENTED_EDGE('',*,*,#643,.F.);
#866=ORIENTED_EDGE('',*,*,#650,.T.);
#867=ORIENTED_EDGE('',*,*,#602,.F.);
#868=ORIENTED_EDGE('',*,*,#637,.F.);
#869=ORIENTED_EDGE('',*,*,#645,.T.);
#870=ORIENTED_EDGE('',*,*,#648,.T.);
#871=ORIENTED_EDGE('',*,*,#604,.F.);
#872=ORIENTED_EDGE('',*,*,#649,.T.);
#873=ORIENTED_EDGE('',*,*,#641,.F.);
#874=ORIENTED_EDGE('',*,*,#578,.T.);
#875=ORIENTED_EDGE('',*,*,#581,.T.);
#876=ORIENTED_EDGE('',*,*,#571,.T.);
#877=ORIENTED_EDGE('',*,*,#575,.T.);
#878=ORIENTED_EDGE('',*,*,#613,.F.);
#879=ORIENTED_EDGE('',*,*,#653,.T.);
#880=ORIENTED_EDGE('',*,*,#619,.F.);
#881=ORIENTED_EDGE('',*,*,#589,.F.);
#882=ORIENTED_EDGE('',*,*,#584,.F.);
#883=ORIENTED_EDGE('',*,*,#593,.F.);
#884=ORIENTED_EDGE('',*,*,#616,.F.);
#885=ORIENTED_EDGE('',*,*,#654,.T.);
#886=ORIENTED_EDGE('',*,*,#652,.T.);
#887=ORIENTED_EDGE('',*,*,#585,.F.);
#888=ORIENTED_EDGE('',*,*,#654,.F.);
#889=ORIENTED_EDGE('',*,*,#615,.F.);
#890=ORIENTED_EDGE('',*,*,#618,.F.);
#891=ORIENTED_EDGE('',*,*,#620,.F.);
#892=ORIENTED_EDGE('',*,*,#653,.F.);
#893=ORIENTED_EDGE('',*,*,#612,.F.);
#894=ORIENTED_EDGE('',*,*,#610,.F.);
#895=ORIENTED_EDGE('',*,*,#655,.T.);
#896=ORIENTED_EDGE('',*,*,#656,.T.);
#897=ORIENTED_EDGE('',*,*,#657,.T.);
#898=ORIENTED_EDGE('',*,*,#658,.T.);
#899=ORIENTED_EDGE('',*,*,#658,.F.);
#900=ORIENTED_EDGE('',*,*,#659,.T.);
#901=ORIENTED_EDGE('',*,*,#660,.T.);
#902=ORIENTED_EDGE('',*,*,#661,.F.);
#903=ORIENTED_EDGE('',*,*,#657,.F.);
#904=ORIENTED_EDGE('',*,*,#662,.F.);
#905=ORIENTED_EDGE('',*,*,#663,.F.);
#906=ORIENTED_EDGE('',*,*,#664,.F.);
#907=ORIENTED_EDGE('',*,*,#665,.F.);
#908=ORIENTED_EDGE('',*,*,#659,.F.);
#909=ORIENTED_EDGE('',*,*,#666,.T.);
#910=ORIENTED_EDGE('',*,*,#667,.T.);
#911=ORIENTED_EDGE('',*,*,#663,.T.);
#912=ORIENTED_EDGE('',*,*,#668,.T.);
#913=ORIENTED_EDGE('',*,*,#667,.F.);
#914=ORIENTED_EDGE('',*,*,#669,.F.);
#915=ORIENTED_EDGE('',*,*,#670,.F.);
#916=ORIENTED_EDGE('',*,*,#664,.T.);
#917=ORIENTED_EDGE('',*,*,#656,.F.);
#918=ORIENTED_EDGE('',*,*,#671,.F.);
#919=ORIENTED_EDGE('',*,*,#668,.F.);
#920=ORIENTED_EDGE('',*,*,#662,.T.);
#921=ORIENTED_EDGE('',*,*,#665,.T.);
#922=ORIENTED_EDGE('',*,*,#670,.T.);
#923=ORIENTED_EDGE('',*,*,#672,.F.);
#924=ORIENTED_EDGE('',*,*,#660,.F.);
#925=ORIENTED_EDGE('',*,*,#655,.F.);
#926=ORIENTED_EDGE('',*,*,#661,.T.);
#927=ORIENTED_EDGE('',*,*,#672,.T.);
#928=ORIENTED_EDGE('',*,*,#669,.T.);
#929=ORIENTED_EDGE('',*,*,#666,.F.);
#930=ORIENTED_EDGE('',*,*,#671,.T.);
#931=ORIENTED_EDGE('',*,*,#673,.T.);
#932=ORIENTED_EDGE('',*,*,#674,.T.);
#933=ORIENTED_EDGE('',*,*,#675,.T.);
#934=ORIENTED_EDGE('',*,*,#676,.T.);
#935=ORIENTED_EDGE('',*,*,#676,.F.);
#936=ORIENTED_EDGE('',*,*,#677,.F.);
#937=ORIENTED_EDGE('',*,*,#678,.T.);
#938=ORIENTED_EDGE('',*,*,#679,.F.);
#939=ORIENTED_EDGE('',*,*,#675,.F.);
#940=ORIENTED_EDGE('',*,*,#680,.T.);
#941=ORIENTED_EDGE('',*,*,#681,.F.);
#942=ORIENTED_EDGE('',*,*,#682,.T.);
#943=ORIENTED_EDGE('',*,*,#683,.T.);
#944=ORIENTED_EDGE('',*,*,#677,.T.);
#945=ORIENTED_EDGE('',*,*,#684,.T.);
#946=ORIENTED_EDGE('',*,*,#685,.T.);
#947=ORIENTED_EDGE('',*,*,#681,.T.);
#948=ORIENTED_EDGE('',*,*,#686,.T.);
#949=ORIENTED_EDGE('',*,*,#685,.F.);
#950=ORIENTED_EDGE('',*,*,#687,.F.);
#951=ORIENTED_EDGE('',*,*,#688,.F.);
#952=ORIENTED_EDGE('',*,*,#682,.F.);
#953=ORIENTED_EDGE('',*,*,#683,.F.);
#954=ORIENTED_EDGE('',*,*,#688,.T.);
#955=ORIENTED_EDGE('',*,*,#689,.F.);
#956=ORIENTED_EDGE('',*,*,#678,.F.);
#957=ORIENTED_EDGE('',*,*,#674,.F.);
#958=ORIENTED_EDGE('',*,*,#690,.F.);
#959=ORIENTED_EDGE('',*,*,#686,.F.);
#960=ORIENTED_EDGE('',*,*,#680,.F.);
#961=ORIENTED_EDGE('',*,*,#673,.F.);
#962=ORIENTED_EDGE('',*,*,#679,.T.);
#963=ORIENTED_EDGE('',*,*,#689,.T.);
#964=ORIENTED_EDGE('',*,*,#687,.T.);
#965=ORIENTED_EDGE('',*,*,#684,.F.);
#966=ORIENTED_EDGE('',*,*,#690,.T.);
#967=ORIENTED_EDGE('',*,*,#691,.T.);
#968=ORIENTED_EDGE('',*,*,#692,.T.);
#969=ORIENTED_EDGE('',*,*,#693,.T.);
#970=ORIENTED_EDGE('',*,*,#694,.T.);
#971=ORIENTED_EDGE('',*,*,#694,.F.);
#972=ORIENTED_EDGE('',*,*,#695,.F.);
#973=ORIENTED_EDGE('',*,*,#696,.T.);
#974=ORIENTED_EDGE('',*,*,#697,.F.);
#975=ORIENTED_EDGE('',*,*,#693,.F.);
#976=ORIENTED_EDGE('',*,*,#698,.T.);
#977=ORIENTED_EDGE('',*,*,#699,.F.);
#978=ORIENTED_EDGE('',*,*,#700,.T.);
#979=ORIENTED_EDGE('',*,*,#701,.T.);
#980=ORIENTED_EDGE('',*,*,#695,.T.);
#981=ORIENTED_EDGE('',*,*,#702,.T.);
#982=ORIENTED_EDGE('',*,*,#703,.T.);
#983=ORIENTED_EDGE('',*,*,#699,.T.);
#984=ORIENTED_EDGE('',*,*,#704,.T.);
#985=ORIENTED_EDGE('',*,*,#703,.F.);
#986=ORIENTED_EDGE('',*,*,#705,.F.);
#987=ORIENTED_EDGE('',*,*,#706,.F.);
#988=ORIENTED_EDGE('',*,*,#700,.F.);
#989=ORIENTED_EDGE('',*,*,#701,.F.);
#990=ORIENTED_EDGE('',*,*,#706,.T.);
#991=ORIENTED_EDGE('',*,*,#707,.F.);
#992=ORIENTED_EDGE('',*,*,#696,.F.);
#993=ORIENTED_EDGE('',*,*,#692,.F.);
#994=ORIENTED_EDGE('',*,*,#708,.F.);
#995=ORIENTED_EDGE('',*,*,#704,.F.);
#996=ORIENTED_EDGE('',*,*,#698,.F.);
#997=ORIENTED_EDGE('',*,*,#691,.F.);
#998=ORIENTED_EDGE('',*,*,#697,.T.);
#999=ORIENTED_EDGE('',*,*,#707,.T.);
#1000=ORIENTED_EDGE('',*,*,#705,.T.);
#1001=ORIENTED_EDGE('',*,*,#702,.F.);
#1002=ORIENTED_EDGE('',*,*,#708,.T.);
#1003=ORIENTED_EDGE('',*,*,#709,.T.);
#1004=ORIENTED_EDGE('',*,*,#710,.T.);
#1005=ORIENTED_EDGE('',*,*,#711,.T.);
#1006=ORIENTED_EDGE('',*,*,#712,.T.);
#1007=ORIENTED_EDGE('',*,*,#712,.F.);
#1008=ORIENTED_EDGE('',*,*,#713,.T.);
#1009=ORIENTED_EDGE('',*,*,#714,.T.);
#1010=ORIENTED_EDGE('',*,*,#715,.F.);
#1011=ORIENTED_EDGE('',*,*,#711,.F.);
#1012=ORIENTED_EDGE('',*,*,#716,.F.);
#1013=ORIENTED_EDGE('',*,*,#717,.F.);
#1014=ORIENTED_EDGE('',*,*,#718,.F.);
#1015=ORIENTED_EDGE('',*,*,#719,.F.);
#1016=ORIENTED_EDGE('',*,*,#713,.F.);
#1017=ORIENTED_EDGE('',*,*,#720,.T.);
#1018=ORIENTED_EDGE('',*,*,#721,.T.);
#1019=ORIENTED_EDGE('',*,*,#717,.T.);
#1020=ORIENTED_EDGE('',*,*,#722,.T.);
#1021=ORIENTED_EDGE('',*,*,#721,.F.);
#1022=ORIENTED_EDGE('',*,*,#723,.F.);
#1023=ORIENTED_EDGE('',*,*,#724,.F.);
#1024=ORIENTED_EDGE('',*,*,#718,.T.);
#1025=ORIENTED_EDGE('',*,*,#710,.F.);
#1026=ORIENTED_EDGE('',*,*,#725,.F.);
#1027=ORIENTED_EDGE('',*,*,#722,.F.);
#1028=ORIENTED_EDGE('',*,*,#716,.T.);
#1029=ORIENTED_EDGE('',*,*,#719,.T.);
#1030=ORIENTED_EDGE('',*,*,#724,.T.);
#1031=ORIENTED_EDGE('',*,*,#726,.F.);
#1032=ORIENTED_EDGE('',*,*,#714,.F.);
#1033=ORIENTED_EDGE('',*,*,#709,.F.);
#1034=ORIENTED_EDGE('',*,*,#715,.T.);
#1035=ORIENTED_EDGE('',*,*,#726,.T.);
#1036=ORIENTED_EDGE('',*,*,#723,.T.);
#1037=ORIENTED_EDGE('',*,*,#720,.F.);
#1038=ORIENTED_EDGE('',*,*,#725,.T.);
#1039=PLANE('',#1175);
#1040=PLANE('',#1176);
#1041=PLANE('',#1177);
#1042=PLANE('',#1178);
#1043=PLANE('',#1182);
#1044=PLANE('',#1190);
#1045=PLANE('',#1195);
#1046=PLANE('',#1198);
#1047=PLANE('',#1199);
#1048=PLANE('',#1202);
#1049=PLANE('',#1203);
#1050=PLANE('',#1206);
#1051=PLANE('',#1207);
#1052=PLANE('',#1208);
#1053=PLANE('',#1209);
#1054=PLANE('',#1212);
#1055=PLANE('',#1213);
#1056=PLANE('',#1214);
#1057=PLANE('',#1215);
#1058=PLANE('',#1216);
#1059=PLANE('',#1219);
#1060=PLANE('',#1220);
#1061=PLANE('',#1221);
#1062=PLANE('',#1222);
#1063=PLANE('',#1223);
#1064=PLANE('',#1224);
#1065=PLANE('',#1225);
#1066=PLANE('',#1229);
#1067=PLANE('',#1230);
#1068=PLANE('',#1234);
#1069=PLANE('',#1235);
#1070=PLANE('',#1236);
#1071=PLANE('',#1237);
#1072=PLANE('',#1241);
#1073=PLANE('',#1242);
#1074=PLANE('',#1246);
#1075=PLANE('',#1247);
#1076=PLANE('',#1248);
#1077=PLANE('',#1249);
#1078=PLANE('',#1253);
#1079=PLANE('',#1254);
#1080=PLANE('',#1258);
#1081=PLANE('',#1259);
#1082=PLANE('',#1260);
#1083=PLANE('',#1261);
#1084=PLANE('',#1265);
#1085=PLANE('',#1266);
#1086=PLANE('',#1270);
#1087=PLANE('',#1271);
#1088=PLANE('',#1272);
#1089=PLANE('',#1273);
#1090=ADVANCED_FACE('',(#78),#1039,.F.);
#1091=ADVANCED_FACE('',(#79),#1040,.F.);
#1092=ADVANCED_FACE('',(#80),#1041,.F.);
#1093=ADVANCED_FACE('',(#81),#1042,.F.);
#1094=ADVANCED_FACE('',(#82),#62,.T.);
#1095=ADVANCED_FACE('',(#83,#23,#24,#25,#26,#27),#1043,.T.);
#1096=ADVANCED_FACE('',(#84,#28),#1044,.T.);
#1097=ADVANCED_FACE('',(#85),#63,.T.);
#1098=ADVANCED_FACE('',(#86),#64,.T.);
#1099=ADVANCED_FACE('',(#87),#1045,.T.);
#1100=ADVANCED_FACE('',(#88),#65,.T.);
#1101=ADVANCED_FACE('',(#89),#1046,.T.);
#1102=ADVANCED_FACE('',(#90),#1047,.T.);
#1103=ADVANCED_FACE('',(#91),#66,.F.);
#1104=ADVANCED_FACE('',(#92),#1048,.T.);
#1105=ADVANCED_FACE('',(#93),#1049,.T.);
#1106=ADVANCED_FACE('',(#94),#67,.F.);
#1107=ADVANCED_FACE('',(#95),#1050,.T.);
#1108=ADVANCED_FACE('',(#96),#1051,.T.);
#1109=ADVANCED_FACE('',(#97),#1052,.T.);
#1110=ADVANCED_FACE('',(#98),#1053,.T.);
#1111=ADVANCED_FACE('',(#99),#68,.F.);
#1112=ADVANCED_FACE('',(#100),#1054,.T.);
#1113=ADVANCED_FACE('',(#101),#1055,.T.);
#1114=ADVANCED_FACE('',(#102),#1056,.T.);
#1115=ADVANCED_FACE('',(#103),#1057,.T.);
#1116=ADVANCED_FACE('',(#104),#1058,.T.);
#1117=ADVANCED_FACE('',(#105),#69,.F.);
#1118=ADVANCED_FACE('',(#106),#1059,.T.);
#1119=ADVANCED_FACE('',(#107),#1060,.T.);
#1120=ADVANCED_FACE('',(#108,#29),#1061,.T.);
#1121=ADVANCED_FACE('',(#109),#1062,.T.);
#1122=ADVANCED_FACE('',(#110),#1063,.T.);
#1123=ADVANCED_FACE('',(#111),#1064,.T.);
#1124=ADVANCED_FACE('',(#112),#1065,.F.);
#1125=ADVANCED_FACE('',(#113),#70,.T.);
#1126=ADVANCED_FACE('',(#114),#1066,.T.);
#1127=ADVANCED_FACE('',(#115),#1067,.F.);
#1128=ADVANCED_FACE('',(#116),#71,.T.);
#1129=ADVANCED_FACE('',(#117),#1068,.T.);
#1130=ADVANCED_FACE('',(#118),#1069,.T.);
#1131=ADVANCED_FACE('',(#119),#1070,.T.);
#1132=ADVANCED_FACE('',(#120),#1071,.T.);
#1133=ADVANCED_FACE('',(#121),#72,.T.);
#1134=ADVANCED_FACE('',(#122),#1072,.T.);
#1135=ADVANCED_FACE('',(#123),#1073,.F.);
#1136=ADVANCED_FACE('',(#124),#73,.T.);
#1137=ADVANCED_FACE('',(#125),#1074,.T.);
#1138=ADVANCED_FACE('',(#126),#1075,.T.);
#1139=ADVANCED_FACE('',(#127),#1076,.T.);
#1140=ADVANCED_FACE('',(#128),#1077,.T.);
#1141=ADVANCED_FACE('',(#129),#74,.T.);
#1142=ADVANCED_FACE('',(#130),#1078,.T.);
#1143=ADVANCED_FACE('',(#131),#1079,.F.);
#1144=ADVANCED_FACE('',(#132),#75,.T.);
#1145=ADVANCED_FACE('',(#133),#1080,.T.);
#1146=ADVANCED_FACE('',(#134),#1081,.T.);
#1147=ADVANCED_FACE('',(#135),#1082,.T.);
#1148=ADVANCED_FACE('',(#136),#1083,.T.);
#1149=ADVANCED_FACE('',(#137),#76,.T.);
#1150=ADVANCED_FACE('',(#138),#1084,.T.);
#1151=ADVANCED_FACE('',(#139),#1085,.F.);
#1152=ADVANCED_FACE('',(#140),#77,.T.);
#1153=ADVANCED_FACE('',(#141),#1086,.T.);
#1154=ADVANCED_FACE('',(#142),#1087,.T.);
#1155=ADVANCED_FACE('',(#143),#1088,.T.);
#1156=ADVANCED_FACE('',(#144),#1089,.T.);
#1157=CLOSED_SHELL('',(#1090,#1091,#1092,#1093,#1094,#1095,#1096,#1097,
#1098,#1099,#1100,#1101,#1102,#1103,#1104,#1105,#1106,#1107,#1108,#1109,
#1110,#1111,#1112,#1113,#1114,#1115,#1116,#1117,#1118,#1119,#1120,#1121,
#1122,#1123,#1124));
#1158=CLOSED_SHELL('',(#1125,#1126,#1127,#1128,#1129,#1130,#1131,#1132));
#1159=CLOSED_SHELL('',(#1133,#1134,#1135,#1136,#1137,#1138,#1139,#1140));
#1160=CLOSED_SHELL('',(#1141,#1142,#1143,#1144,#1145,#1146,#1147,#1148));
#1161=CLOSED_SHELL('',(#1149,#1150,#1151,#1152,#1153,#1154,#1155,#1156));
#1162=DERIVED_UNIT_ELEMENT(#1164,1.);
#1163=DERIVED_UNIT_ELEMENT(#1931,-3.);
#1164=(
MASS_UNIT()
NAMED_UNIT(*)
SI_UNIT(.KILO.,.GRAM.)
);
#1165=DERIVED_UNIT((#1162,#1163));
#1166=MEASURE_REPRESENTATION_ITEM('density measure',
POSITIVE_RATIO_MEASURE(7850.),#1165);
#1167=PROPERTY_DEFINITION_REPRESENTATION(#1172,#1169);
#1168=PROPERTY_DEFINITION_REPRESENTATION(#1173,#1170);
#1169=REPRESENTATION('material name',(#1171),#1928);
#1170=REPRESENTATION('density',(#1166),#1928);
#1171=DESCRIPTIVE_REPRESENTATION_ITEM('Steel','Steel');
#1172=PROPERTY_DEFINITION('material property','material name',#1938);
#1173=PROPERTY_DEFINITION('material property','density of part',#1938);
#1174=AXIS2_PLACEMENT_3D('',#1598,#1274,#1275);
#1175=AXIS2_PLACEMENT_3D('',#1599,#1276,#1277);
#1176=AXIS2_PLACEMENT_3D('',#1608,#1282,#1283);
#1177=AXIS2_PLACEMENT_3D('',#1614,#1287,#1288);
#1178=AXIS2_PLACEMENT_3D('',#1620,#1292,#1293);
#1179=AXIS2_PLACEMENT_3D('',#1623,#1296,#1297);
#1180=AXIS2_PLACEMENT_3D('',#1626,#1298,#1299);
#1181=AXIS2_PLACEMENT_3D('',#1630,#1301,#1302);
#1182=AXIS2_PLACEMENT_3D('',#1632,#1304,#1305);
#1183=AXIS2_PLACEMENT_3D('',#1636,#1307,#1308);
#1184=AXIS2_PLACEMENT_3D('',#1640,#1310,#1311);
#1185=AXIS2_PLACEMENT_3D('',#1644,#1313,#1314);
#1186=AXIS2_PLACEMENT_3D('',#1647,#1316,#1317);
#1187=AXIS2_PLACEMENT_3D('',#1649,#1318,#1319);
#1188=AXIS2_PLACEMENT_3D('',#1651,#1320,#1321);
#1189=AXIS2_PLACEMENT_3D('',#1653,#1322,#1323);
#1190=AXIS2_PLACEMENT_3D('',#1678,#1336,#1337);
#1191=AXIS2_PLACEMENT_3D('',#1682,#1340,#1341);
#1192=AXIS2_PLACEMENT_3D('',#1684,#1342,#1343);
#1193=AXIS2_PLACEMENT_3D('',#1686,#1345,#1346);
#1194=AXIS2_PLACEMENT_3D('',#1690,#1348,#1349);
#1195=AXIS2_PLACEMENT_3D('',#1692,#1351,#1352);
#1196=AXIS2_PLACEMENT_3D('',#1696,#1355,#1356);
#1197=AXIS2_PLACEMENT_3D('',#1699,#1358,#1359);
#1198=AXIS2_PLACEMENT_3D('',#1700,#1360,#1361);
#1199=AXIS2_PLACEMENT_3D('',#1706,#1365,#1366);
#1200=AXIS2_PLACEMENT_3D('',#1710,#1369,#1370);
#1201=AXIS2_PLACEMENT_3D('',#1713,#1372,#1373);
#1202=AXIS2_PLACEMENT_3D('',#1714,#1374,#1375);
#1203=AXIS2_PLACEMENT_3D('',#1718,#1378,#1379);
#1204=AXIS2_PLACEMENT_3D('',#1719,#1380,#1381);
#1205=AXIS2_PLACEMENT_3D('',#1722,#1383,#1384);
#1206=AXIS2_PLACEMENT_3D('',#1723,#1385,#1386);
#1207=AXIS2_PLACEMENT_3D('',#1729,#1390,#1391);
#1208=AXIS2_PLACEMENT_3D('',#1731,#1393,#1394);
#1209=AXIS2_PLACEMENT_3D('',#1735,#1397,#1398);
#1210=AXIS2_PLACEMENT_3D('',#1747,#1405,#1406);
#1211=AXIS2_PLACEMENT_3D('',#1750,#1408,#1409);
#1212=AXIS2_PLACEMENT_3D('',#1751,#1410,#1411);
#1213=AXIS2_PLACEMENT_3D('',#1754,#1414,#1415);
#1214=AXIS2_PLACEMENT_3D('',#1756,#1417,#1418);
#1215=AXIS2_PLACEMENT_3D('',#1757,#1419,#1420);
#1216=AXIS2_PLACEMENT_3D('',#1758,#1421,#1422);
#1217=AXIS2_PLACEMENT_3D('',#1761,#1425,#1426);
#1218=AXIS2_PLACEMENT_3D('',#1764,#1428,#1429);
#1219=AXIS2_PLACEMENT_3D('',#1765,#1430,#1431);
#1220=AXIS2_PLACEMENT_3D('',#1766,#1432,#1433);
#1221=AXIS2_PLACEMENT_3D('',#1767,#1434,#1435);
#1222=AXIS2_PLACEMENT_3D('',#1768,#1436,#1437);
#1223=AXIS2_PLACEMENT_3D('',#1770,#1439,#1440);
#1224=AXIS2_PLACEMENT_3D('',#1772,#1442,#1443);
#1225=AXIS2_PLACEMENT_3D('',#1773,#1444,#1445);
#1226=AXIS2_PLACEMENT_3D('',#1774,#1446,#1447);
#1227=AXIS2_PLACEMENT_3D('',#1777,#1448,#1449);
#1228=AXIS2_PLACEMENT_3D('',#1781,#1451,#1452);
#1229=AXIS2_PLACEMENT_3D('',#1783,#1454,#1455);
#1230=AXIS2_PLACEMENT_3D('',#1789,#1459,#1460);
#1231=AXIS2_PLACEMENT_3D('',#1793,#1462,#1463);
#1232=AXIS2_PLACEMENT_3D('',#1797,#1466,#1467);
#1233=AXIS2_PLACEMENT_3D('',#1800,#1468,#1469);
#1234=AXIS2_PLACEMENT_3D('',#1803,#1472,#1473);
#1235=AXIS2_PLACEMENT_3D('',#1807,#1476,#1477);
#1236=AXIS2_PLACEMENT_3D('',#1809,#1479,#1480);
#1237=AXIS2_PLACEMENT_3D('',#1811,#1482,#1483);
#1238=AXIS2_PLACEMENT_3D('',#1812,#1484,#1485);
#1239=AXIS2_PLACEMENT_3D('',#1815,#1486,#1487);
#1240=AXIS2_PLACEMENT_3D('',#1819,#1489,#1490);
#1241=AXIS2_PLACEMENT_3D('',#1821,#1492,#1493);
#1242=AXIS2_PLACEMENT_3D('',#1827,#1497,#1498);
#1243=AXIS2_PLACEMENT_3D('',#1831,#1500,#1501);
#1244=AXIS2_PLACEMENT_3D('',#1835,#1504,#1505);
#1245=AXIS2_PLACEMENT_3D('',#1838,#1506,#1507);
#1246=AXIS2_PLACEMENT_3D('',#1841,#1510,#1511);
#1247=AXIS2_PLACEMENT_3D('',#1845,#1514,#1515);
#1248=AXIS2_PLACEMENT_3D('',#1847,#1517,#1518);
#1249=AXIS2_PLACEMENT_3D('',#1849,#1520,#1521);
#1250=AXIS2_PLACEMENT_3D('',#1850,#1522,#1523);
#1251=AXIS2_PLACEMENT_3D('',#1853,#1524,#1525);
#1252=AXIS2_PLACEMENT_3D('',#1857,#1527,#1528);
#1253=AXIS2_PLACEMENT_3D('',#1859,#1530,#1531);
#1254=AXIS2_PLACEMENT_3D('',#1865,#1535,#1536);
#1255=AXIS2_PLACEMENT_3D('',#1869,#1538,#1539);
#1256=AXIS2_PLACEMENT_3D('',#1873,#1542,#1543);
#1257=AXIS2_PLACEMENT_3D('',#1876,#1544,#1545);
#1258=AXIS2_PLACEMENT_3D('',#1879,#1548,#1549);
#1259=AXIS2_PLACEMENT_3D('',#1883,#1552,#1553);
#1260=AXIS2_PLACEMENT_3D('',#1885,#1555,#1556);
#1261=AXIS2_PLACEMENT_3D('',#1887,#1558,#1559);
#1262=AXIS2_PLACEMENT_3D('',#1888,#1560,#1561);
#1263=AXIS2_PLACEMENT_3D('',#1891,#1562,#1563);
#1264=AXIS2_PLACEMENT_3D('',#1895,#1565,#1566);
#1265=AXIS2_PLACEMENT_3D('',#1897,#1568,#1569);
#1266=AXIS2_PLACEMENT_3D('',#1903,#1573,#1574);
#1267=AXIS2_PLACEMENT_3D('',#1907,#1576,#1577);
#1268=AXIS2_PLACEMENT_3D('',#1911,#1580,#1581);
#1269=AXIS2_PLACEMENT_3D('',#1914,#1582,#1583);
#1270=AXIS2_PLACEMENT_3D('',#1917,#1586,#1587);
#1271=AXIS2_PLACEMENT_3D('',#1921,#1590,#1591);
#1272=AXIS2_PLACEMENT_3D('',#1923,#1593,#1594);
#1273=AXIS2_PLACEMENT_3D('',#1925,#1596,#1597);
#1274=DIRECTION('axis',(0.,0.,1.));
#1275=DIRECTION('refdir',(1.,0.,0.));
#1276=DIRECTION('center_axis',(4.44089209850063E-16,-1.,0.));
#1277=DIRECTION('ref_axis',(0.,0.,1.));
#1278=DIRECTION('',(0.,0.,-1.));
#1279=DIRECTION('',(-1.,-4.44089209850063E-16,0.));
#1280=DIRECTION('',(0.,0.,1.));
#1281=DIRECTION('',(-1.,-4.44089209850063E-16,0.));
#1282=DIRECTION('center_axis',(0.,0.,-1.));
#1283=DIRECTION('ref_axis',(2.46716227694479E-16,-1.,0.));
#1284=DIRECTION('',(-3.5527136788005E-14,1.,0.));
#1285=DIRECTION('',(-2.65127886477648E-16,-1.,0.));
#1286=DIRECTION('',(-1.,-4.44089209850063E-16,0.));
#1287=DIRECTION('center_axis',(-4.44089209850063E-16,1.,-2.22044604925031E-16));
#1288=DIRECTION('ref_axis',(5.47820073070147E-32,-2.22044604925031E-16,
-1.));
#1289=DIRECTION('',(-7.88860905221013E-30,2.22044604925031E-16,1.));
#1290=DIRECTION('',(-5.88702168075378E-32,-2.22044604925031E-16,-1.));
#1291=DIRECTION('',(-1.,-4.44089209850063E-16,0.));
#1292=DIRECTION('center_axis',(0.,0.,1.));
#1293=DIRECTION('ref_axis',(-2.46716227694479E-16,1.,0.));
#1294=DIRECTION('',(3.5527136788005E-14,-1.,0.));
#1295=DIRECTION('',(2.65127886477648E-16,1.,0.));
#1296=DIRECTION('center_axis',(0.,0.,1.));
#1297=DIRECTION('ref_axis',(0.707106781186543,-0.707106781186552,0.));
#1298=DIRECTION('center_axis',(0.,0.,-1.));
#1299=DIRECTION('ref_axis',(0.707106781186543,-0.707106781186552,0.));
#1300=DIRECTION('',(0.,0.,-1.));
#1301=DIRECTION('center_axis',(0.,0.,1.));
#1302=DIRECTION('ref_axis',(0.707106781186543,-0.707106781186552,0.));
#1303=DIRECTION('',(0.,0.,1.));
#1304=DIRECTION('center_axis',(0.,0.,1.));
#1305=DIRECTION('ref_axis',(1.,0.,0.));
#1306=DIRECTION('',(2.65127886477648E-16,1.,0.));
#1307=DIRECTION('center_axis',(0.,0.,-1.));
#1308=DIRECTION('ref_axis',(0.70710678118655,0.707106781186545,0.));
#1309=DIRECTION('',(-1.,7.72329060608859E-16,0.));
#1310=DIRECTION('center_axis',(0.,0.,-1.));
#1311=DIRECTION('ref_axis',(-0.707106781186545,0.70710678118655,0.));
#1312=DIRECTION('',(-9.54460391319536E-15,-1.,0.));
#1313=DIRECTION('center_axis',(0.,0.,-1.));
#1314=DIRECTION('ref_axis',(-0.707106781186556,-0.707106781186539,0.));
#1315=DIRECTION('',(1.,-4.15126870077259E-15,0.));
#1316=DIRECTION('center_axis',(0.,0.,-1.));
#1317=DIRECTION('ref_axis',(1.,0.,0.));
#1318=DIRECTION('center_axis',(0.,0.,-1.));
#1319=DIRECTION('ref_axis',(1.,0.,0.));
#1320=DIRECTION('center_axis',(0.,0.,-1.));
#1321=DIRECTION('ref_axis',(1.,0.,0.));
#1322=DIRECTION('center_axis',(0.,0.,-1.));
#1323=DIRECTION('ref_axis',(1.,0.,0.));
#1324=DIRECTION('',(-4.87229304521212E-13,1.,0.));
#1325=DIRECTION('',(1.,2.53765262771398E-15,0.));
#1326=DIRECTION('',(-7.51145177803531E-13,1.,0.));
#1327=DIRECTION('',(1.,-5.07530525542929E-15,0.));
#1328=DIRECTION('',(-3.80647894157195E-14,-1.,0.));
#1329=DIRECTION('',(1.,-1.2688263138573E-15,0.));
#1330=DIRECTION('',(3.5527136788005E-14,-1.,0.));
#1331=DIRECTION('',(-1.,2.53765262772802E-15,0.));
#1332=DIRECTION('',(-5.23644619728917E-12,-1.,0.));
#1333=DIRECTION('',(-1.,-7.61295788314396E-15,0.));
#1334=DIRECTION('',(3.78364006792256E-12,1.,0.));
#1335=DIRECTION('',(-1.,-1.26882631385355E-15,0.));
#1336=DIRECTION('center_axis',(1.,-2.65127886477648E-16,0.));
#1337=DIRECTION('ref_axis',(2.65127886477648E-16,1.,0.));
#1338=DIRECTION('',(2.65127886477648E-16,1.,0.));
#1339=DIRECTION('',(0.,0.,-1.));
#1340=DIRECTION('center_axis',(0.,0.,1.));
#1341=DIRECTION('ref_axis',(0.70710678118655,0.707106781186545,0.));
#1342=DIRECTION('center_axis',(0.,0.,1.));
#1343=DIRECTION('ref_axis',(0.70710678118655,0.707106781186545,0.));
#1344=DIRECTION('',(0.,0.,1.));
#1345=DIRECTION('center_axis',(0.,0.,1.));
#1346=DIRECTION('ref_axis',(-0.707106781186556,-0.707106781186539,0.));
#1347=DIRECTION('',(0.,0.,-1.));
#1348=DIRECTION('center_axis',(0.,0.,1.));
#1349=DIRECTION('ref_axis',(-0.707106781186556,-0.707106781186539,0.));
#1350=DIRECTION('',(0.,0.,1.));
#1351=DIRECTION('center_axis',(-1.,9.54460391319536E-15,0.));
#1352=DIRECTION('ref_axis',(-9.54460391319536E-15,-1.,0.));
#1353=DIRECTION('',(0.,0.,1.));
#1354=DIRECTION('',(-9.54460391319536E-15,-1.,0.));
#1355=DIRECTION('center_axis',(0.,0.,1.));
#1356=DIRECTION('ref_axis',(-0.707106781186545,0.70710678118655,0.));
#1357=DIRECTION('',(0.,0.,-1.));
#1358=DIRECTION('center_axis',(0.,0.,1.));
#1359=DIRECTION('ref_axis',(-0.707106781186545,0.70710678118655,0.));
#1360=DIRECTION('center_axis',(1.,-3.78364006792256E-12,0.));
#1361=DIRECTION('ref_axis',(3.78364006792256E-12,1.,0.));
#1362=DIRECTION('',(-3.78364006792256E-12,-1.,0.));
#1363=DIRECTION('',(0.,0.,1.));
#1364=DIRECTION('',(0.,0.,1.));
#1365=DIRECTION('center_axis',(-1.26882631385355E-15,1.,0.));
#1366=DIRECTION('ref_axis',(-1.,-1.26882631385355E-15,0.));
#1367=DIRECTION('',(1.,1.26882631385355E-15,0.));
#1368=DIRECTION('',(0.,0.,-1.));
#1369=DIRECTION('center_axis',(0.,0.,1.));
#1370=DIRECTION('ref_axis',(1.,0.,0.));
#1371=DIRECTION('',(0.,0.,-1.));
#1372=DIRECTION('center_axis',(0.,0.,1.));
#1373=DIRECTION('ref_axis',(1.,0.,0.));
#1374=DIRECTION('center_axis',(1.,4.87229304521212E-13,0.));
#1375=DIRECTION('ref_axis',(-4.87229304521212E-13,1.,0.));
#1376=DIRECTION('',(4.87229304521212E-13,-1.,0.));
#1377=DIRECTION('',(0.,0.,1.));
#1378=DIRECTION('center_axis',(0.,0.,1.));
#1379=DIRECTION('ref_axis',(1.,0.,0.));
#1380=DIRECTION('center_axis',(0.,0.,1.));
#1381=DIRECTION('ref_axis',(1.,0.,0.));
#1382=DIRECTION('',(0.,0.,-1.));
#1383=DIRECTION('center_axis',(0.,0.,1.));
#1384=DIRECTION('ref_axis',(1.,0.,0.));
#1385=DIRECTION('center_axis',(1.,7.51145177803531E-13,0.));
#1386=DIRECTION('ref_axis',(-7.51145177803531E-13,1.,0.));
#1387=DIRECTION('',(7.51145177803531E-13,-1.,0.));
#1388=DIRECTION('',(0.,0.,-1.));
#1389=DIRECTION('',(0.,0.,1.));
#1390=DIRECTION('center_axis',(2.53765262771398E-15,-1.,0.));
#1391=DIRECTION('ref_axis',(1.,2.53765262771398E-15,0.));
#1392=DIRECTION('',(-1.,-2.53765262771398E-15,0.));
#1393=DIRECTION('center_axis',(-5.07530525542929E-15,-1.,0.));
#1394=DIRECTION('ref_axis',(1.,-5.07530525542929E-15,0.));
#1395=DIRECTION('',(-1.,5.07530525542929E-15,0.));
#1396=DIRECTION('',(0.,0.,1.));
#1397=DIRECTION('center_axis',(0.,0.,1.));
#1398=DIRECTION('ref_axis',(1.,0.,0.));
#1399=DIRECTION('',(1.,7.61295788314396E-15,0.));
#1400=DIRECTION('',(5.23644619728917E-12,1.,0.));
#1401=DIRECTION('',(1.,-2.53765262772802E-15,0.));
#1402=DIRECTION('',(-3.5527136788005E-14,1.,0.));
#1403=DIRECTION('',(-1.,1.2688263138573E-15,0.));
#1404=DIRECTION('',(3.80647894157195E-14,1.,0.));
#1405=DIRECTION('center_axis',(0.,0.,1.));
#1406=DIRECTION('ref_axis',(1.,0.,0.));
#1407=DIRECTION('',(0.,0.,-1.));
#1408=DIRECTION('center_axis',(0.,0.,1.));
#1409=DIRECTION('ref_axis',(1.,0.,0.));
#1410=DIRECTION('center_axis',(-1.,5.23644619728917E-12,0.));
#1411=DIRECTION('ref_axis',(-5.23644619728917E-12,-1.,0.));
#1412=DIRECTION('',(0.,0.,-1.));
#1413=DIRECTION('',(0.,0.,1.));
#1414=DIRECTION('center_axis',(2.53765262772802E-15,1.,0.));
#1415=DIRECTION('ref_axis',(-1.,2.53765262772802E-15,0.));
#1416=DIRECTION('',(0.,0.,1.));
#1417=DIRECTION('center_axis',(-7.61295788314396E-15,1.,0.));
#1418=DIRECTION('ref_axis',(-1.,-7.61295788314396E-15,0.));
#1419=DIRECTION('center_axis',(0.,0.,1.));
#1420=DIRECTION('ref_axis',(1.,0.,0.));
#1421=DIRECTION('center_axis',(-1.2688263138573E-15,-1.,0.));
#1422=DIRECTION('ref_axis',(1.,-1.2688263138573E-15,0.));
#1423=DIRECTION('',(0.,0.,-1.));
#1424=DIRECTION('',(0.,0.,1.));
#1425=DIRECTION('center_axis',(0.,0.,1.));
#1426=DIRECTION('ref_axis',(1.,0.,0.));
#1427=DIRECTION('',(0.,0.,-1.));
#1428=DIRECTION('center_axis',(0.,0.,1.));
#1429=DIRECTION('ref_axis',(1.,0.,0.));
#1430=DIRECTION('center_axis',(-1.,3.80647894157195E-14,0.));
#1431=DIRECTION('ref_axis',(-3.80647894157195E-14,-1.,0.));
#1432=DIRECTION('center_axis',(0.,0.,1.));
#1433=DIRECTION('ref_axis',(1.,0.,0.));
#1434=DIRECTION('center_axis',(-1.,-3.5527136788005E-14,0.));
#1435=DIRECTION('ref_axis',(3.5527136788005E-14,-1.,0.));
#1436=DIRECTION('center_axis',(7.72329060608859E-16,1.,0.));
#1437=DIRECTION('ref_axis',(-1.,7.72329060608859E-16,0.));
#1438=DIRECTION('',(-1.,7.72329060608859E-16,0.));
#1439=DIRECTION('center_axis',(-4.15126870077259E-15,-1.,0.));
#1440=DIRECTION('ref_axis',(1.,-4.15126870077259E-15,0.));
#1441=DIRECTION('',(1.,-4.15126870077259E-15,0.));
#1442=DIRECTION('center_axis',(0.,0.,1.));
#1443=DIRECTION('ref_axis',(1.,0.,0.));
#1444=DIRECTION('center_axis',(0.,0.,1.));
#1445=DIRECTION('ref_axis',(1.,0.,0.));
#1446=DIRECTION('center_axis',(0.,0.,1.));
#1447=DIRECTION('ref_axis',(0.707106781187998,0.707106781185097,0.));
#1448=DIRECTION('center_axis',(0.,0.,-1.));
#1449=DIRECTION('ref_axis',(0.707106781187998,0.707106781185097,0.));
#1450=DIRECTION('',(0.,0.,-1.));
#1451=DIRECTION('center_axis',(0.,0.,1.));
#1452=DIRECTION('ref_axis',(0.707106781187998,0.707106781185097,0.));
#1453=DIRECTION('',(0.,0.,1.));
#1454=DIRECTION('center_axis',(0.,1.,0.));
#1455=DIRECTION('ref_axis',(-1.,0.,0.));
#1456=DIRECTION('',(-1.,0.,0.));
#1457=DIRECTION('',(0.,0.,1.));
#1458=DIRECTION('',(-1.,0.,0.));
#1459=DIRECTION('center_axis',(0.,0.,1.));
#1460=DIRECTION('ref_axis',(1.,0.,0.));
#1461=DIRECTION('',(4.08680496851352E-12,1.,0.));
#1462=DIRECTION('center_axis',(0.,0.,1.));
#1463=DIRECTION('ref_axis',(0.707106781185103,-0.707106781187992,0.));
#1464=DIRECTION('',(1.,0.,0.));
#1465=DIRECTION('',(-4.08680496851352E-12,-1.,0.));
#1466=DIRECTION('center_axis',(0.,0.,1.));
#1467=DIRECTION('ref_axis',(0.707106781185103,-0.707106781187992,0.));
#1468=DIRECTION('center_axis',(0.,0.,-1.));
#1469=DIRECTION('ref_axis',(0.707106781185103,-0.707106781187992,0.));
#1470=DIRECTION('',(0.,0.,-1.));
#1471=DIRECTION('',(0.,0.,1.));
#1472=DIRECTION('center_axis',(0.,-1.,0.));
#1473=DIRECTION('ref_axis',(1.,0.,0.));
#1474=DIRECTION('',(1.,0.,0.));
#1475=DIRECTION('',(0.,0.,1.));
#1476=DIRECTION('center_axis',(1.,-4.08680496851352E-12,0.));
#1477=DIRECTION('ref_axis',(4.08680496851352E-12,1.,0.));
#1478=DIRECTION('',(4.08680496851352E-12,1.,0.));
#1479=DIRECTION('center_axis',(-1.,4.08680496851352E-12,0.));
#1480=DIRECTION('ref_axis',(-4.08680496851352E-12,-1.,0.));
#1481=DIRECTION('',(-4.08680496851352E-12,-1.,0.));
#1482=DIRECTION('center_axis',(0.,0.,1.));
#1483=DIRECTION('ref_axis',(1.,0.,0.));
#1484=DIRECTION('center_axis',(0.,0.,1.));
#1485=DIRECTION('ref_axis',(-0.707106781186588,-0.707106781186507,0.));
#1486=DIRECTION('center_axis',(0.,0.,-1.));
#1487=DIRECTION('ref_axis',(-0.707106781186588,-0.707106781186507,0.));
#1488=DIRECTION('',(0.,0.,-1.));
#1489=DIRECTION('center_axis',(0.,0.,1.));
#1490=DIRECTION('ref_axis',(-0.707106781186588,-0.707106781186507,0.));
#1491=DIRECTION('',(0.,0.,1.));
#1492=DIRECTION('center_axis',(-1.25529216650951E-13,-1.,0.));
#1493=DIRECTION('ref_axis',(1.,-1.25529216650951E-13,0.));
#1494=DIRECTION('',(-1.,1.25529216650951E-13,0.));
#1495=DIRECTION('',(0.,0.,1.));
#1496=DIRECTION('',(1.,-1.25529216650951E-13,0.));
#1497=DIRECTION('center_axis',(0.,0.,1.));
#1498=DIRECTION('ref_axis',(1.,0.,0.));
#1499=DIRECTION('',(-1.18423789293547E-15,1.,0.));
#1500=DIRECTION('center_axis',(0.,0.,1.));
#1501=DIRECTION('ref_axis',(-0.707106781186548,0.707106781186548,0.));
#1502=DIRECTION('',(1.,0.,0.));
#1503=DIRECTION('',(3.55271367880595E-15,-1.,0.));
#1504=DIRECTION('center_axis',(0.,0.,1.));
#1505=DIRECTION('ref_axis',(-0.707106781186548,0.707106781186548,0.));
#1506=DIRECTION('center_axis',(0.,0.,-1.));
#1507=DIRECTION('ref_axis',(-0.707106781186548,0.707106781186548,0.));
#1508=DIRECTION('',(0.,0.,-1.));
#1509=DIRECTION('',(0.,0.,1.));
#1510=DIRECTION('center_axis',(0.,1.,0.));
#1511=DIRECTION('ref_axis',(-1.,0.,0.));
#1512=DIRECTION('',(-1.,0.,0.));
#1513=DIRECTION('',(0.,0.,1.));
#1514=DIRECTION('center_axis',(1.,3.55271367880595E-15,0.));
#1515=DIRECTION('ref_axis',(-3.55271367880595E-15,1.,0.));
#1516=DIRECTION('',(-3.55271367880595E-15,1.,0.));
#1517=DIRECTION('center_axis',(-1.,-1.18423789293547E-15,0.));
#1518=DIRECTION('ref_axis',(1.18423789293547E-15,-1.,0.));
#1519=DIRECTION('',(1.18423789293547E-15,-1.,0.));
#1520=DIRECTION('center_axis',(0.,0.,1.));
#1521=DIRECTION('ref_axis',(1.,0.,0.));
#1522=DIRECTION('center_axis',(0.,0.,1.));
#1523=DIRECTION('ref_axis',(0.707106781186544,0.707106781186551,0.));
#1524=DIRECTION('center_axis',(0.,0.,-1.));
#1525=DIRECTION('ref_axis',(0.707106781186544,0.707106781186551,0.));
#1526=DIRECTION('',(0.,0.,-1.));
#1527=DIRECTION('center_axis',(0.,0.,1.));
#1528=DIRECTION('ref_axis',(0.707106781186544,0.707106781186551,0.));
#1529=DIRECTION('',(0.,0.,1.));
#1530=DIRECTION('center_axis',(0.,1.,0.));
#1531=DIRECTION('ref_axis',(-1.,0.,0.));
#1532=DIRECTION('',(1.,0.,0.));
#1533=DIRECTION('',(0.,0.,1.));
#1534=DIRECTION('',(-1.,0.,0.));
#1535=DIRECTION('center_axis',(0.,0.,1.));
#1536=DIRECTION('ref_axis',(1.,0.,0.));
#1537=DIRECTION('',(0.,-1.,0.));
#1538=DIRECTION('center_axis',(0.,0.,1.));
#1539=DIRECTION('ref_axis',(0.707106781186546,-0.707106781186549,0.));
#1540=DIRECTION('',(-1.,0.,0.));
#1541=DIRECTION('',(0.,1.,0.));
#1542=DIRECTION('center_axis',(0.,0.,1.));
#1543=DIRECTION('ref_axis',(0.707106781186546,-0.707106781186549,0.));
#1544=DIRECTION('center_axis',(0.,0.,-1.));
#1545=DIRECTION('ref_axis',(0.707106781186546,-0.707106781186549,0.));
#1546=DIRECTION('',(0.,0.,-1.));
#1547=DIRECTION('',(0.,0.,1.));
#1548=DIRECTION('center_axis',(0.,-1.,0.));
#1549=DIRECTION('ref_axis',(1.,0.,0.));
#1550=DIRECTION('',(1.,0.,0.));
#1551=DIRECTION('',(0.,0.,1.));
#1552=DIRECTION('center_axis',(-1.,0.,0.));
#1553=DIRECTION('ref_axis',(0.,-1.,0.));
#1554=DIRECTION('',(0.,-1.,0.));
#1555=DIRECTION('center_axis',(1.,0.,0.));
#1556=DIRECTION('ref_axis',(0.,1.,0.));
#1557=DIRECTION('',(0.,1.,0.));
#1558=DIRECTION('center_axis',(0.,0.,1.));
#1559=DIRECTION('ref_axis',(1.,0.,0.));
#1560=DIRECTION('center_axis',(0.,0.,1.));
#1561=DIRECTION('ref_axis',(-0.707106781186546,-0.707106781186549,0.));
#1562=DIRECTION('center_axis',(0.,0.,-1.));
#1563=DIRECTION('ref_axis',(-0.707106781186546,-0.707106781186549,0.));
#1564=DIRECTION('',(0.,0.,-1.));
#1565=DIRECTION('center_axis',(0.,0.,1.));
#1566=DIRECTION('ref_axis',(-0.707106781186546,-0.707106781186549,0.));
#1567=DIRECTION('',(0.,0.,1.));
#1568=DIRECTION('center_axis',(0.,-1.,0.));
#1569=DIRECTION('ref_axis',(1.,0.,0.));
#1570=DIRECTION('',(1.,0.,0.));
#1571=DIRECTION('',(0.,0.,1.));
#1572=DIRECTION('',(1.,0.,0.));
#1573=DIRECTION('center_axis',(0.,0.,1.));
#1574=DIRECTION('ref_axis',(1.,0.,0.));
#1575=DIRECTION('',(0.,-1.,0.));
#1576=DIRECTION('center_axis',(0.,0.,1.));
#1577=DIRECTION('ref_axis',(-0.707106781186548,0.707106781186548,0.));
#1578=DIRECTION('',(-1.,0.,0.));
#1579=DIRECTION('',(0.,1.,0.));
#1580=DIRECTION('center_axis',(0.,0.,1.));
#1581=DIRECTION('ref_axis',(-0.707106781186548,0.707106781186548,0.));
#1582=DIRECTION('center_axis',(0.,0.,-1.));
#1583=DIRECTION('ref_axis',(-0.707106781186548,0.707106781186548,0.));
#1584=DIRECTION('',(0.,0.,-1.));
#1585=DIRECTION('',(0.,0.,1.));
#1586=DIRECTION('center_axis',(0.,1.,0.));
#1587=DIRECTION('ref_axis',(-1.,0.,0.));
#1588=DIRECTION('',(-1.,0.,0.));
#1589=DIRECTION('',(0.,0.,1.));
#1590=DIRECTION('center_axis',(-1.,0.,0.));
#1591=DIRECTION('ref_axis',(0.,-1.,0.));
#1592=DIRECTION('',(0.,-1.,0.));
#1593=DIRECTION('center_axis',(1.,0.,0.));
#1594=DIRECTION('ref_axis',(0.,1.,0.));
#1595=DIRECTION('',(0.,1.,0.));
#1596=DIRECTION('center_axis',(0.,0.,1.));
#1597=DIRECTION('ref_axis',(1.,0.,0.));
#1598=CARTESIAN_POINT('',(0.,0.,0.));
#1599=CARTESIAN_POINT('Origin',(91.9999999999963,-22.5,50.));
#1600=CARTESIAN_POINT('',(86.9999999999949,-22.5,70.));
#1601=CARTESIAN_POINT('',(86.9999999999949,-22.5,50.));
#1602=CARTESIAN_POINT('',(86.9999999999949,-22.5,25.));
#1603=CARTESIAN_POINT('',(91.9999999999963,-22.5,70.));
#1604=CARTESIAN_POINT('',(91.9999999999963,-22.5,70.));
#1605=CARTESIAN_POINT('',(91.9999999999963,-22.5,50.));
#1606=CARTESIAN_POINT('',(91.9999999999963,-22.5,25.));
#1607=CARTESIAN_POINT('',(91.9999999999963,-22.5,50.));
#1608=CARTESIAN_POINT('Origin',(91.9999999999963,22.5,50.));
#1609=CARTESIAN_POINT('',(86.9999999999933,22.5,50.));
#1610=CARTESIAN_POINT('',(86.9999999999926,42.2499999999988,50.));
#1611=CARTESIAN_POINT('',(91.9999999999963,22.5,50.));
#1612=CARTESIAN_POINT('',(91.9999999999963,-22.2500000000015,50.));
#1613=CARTESIAN_POINT('',(91.9999999999963,22.5,50.));
#1614=CARTESIAN_POINT('Origin',(91.9999999999963,22.5,70.));
#1615=CARTESIAN_POINT('',(86.9999999999933,22.5,70.));
#1616=CARTESIAN_POINT('',(86.9999999999933,22.5,35.));
#1617=CARTESIAN_POINT('',(91.9999999999963,22.5,70.));
#1618=CARTESIAN_POINT('',(91.9999999999963,22.5,35.));
#1619=CARTESIAN_POINT('',(91.9999999999963,22.5,70.));
#1620=CARTESIAN_POINT('Origin',(91.9999999999963,-22.5,70.));
#1621=CARTESIAN_POINT('',(86.9999999999934,19.7499999999988,70.));
#1622=CARTESIAN_POINT('',(91.9999999999963,-44.7500000000015,70.));
#1623=CARTESIAN_POINT('Origin',(88.9999999999963,-64.0000000000031,0.));
#1624=CARTESIAN_POINT('',(91.9999999999963,-64.0000000000031,85.));
#1625=CARTESIAN_POINT('',(88.9999999999962,-67.0000000000031,85.));
#1626=CARTESIAN_POINT('Origin',(88.9999999999963,-64.0000000000031,85.));
#1627=CARTESIAN_POINT('',(88.9999999999962,-67.0000000000031,0.));
#1628=CARTESIAN_POINT('',(88.9999999999963,-67.0000000000031,0.));
#1629=CARTESIAN_POINT('',(91.9999999999963,-64.0000000000031,0.));
#1630=CARTESIAN_POINT('Origin',(88.9999999999963,-64.0000000000031,0.));
#1631=CARTESIAN_POINT('',(91.9999999999963,-64.0000000000031,0.));
#1632=CARTESIAN_POINT('Origin',(2.96296320811962E-11,-2.62012633811537E-12,
85.));
#1633=CARTESIAN_POINT('',(91.9999999999963,63.9999999999977,85.));
#1634=CARTESIAN_POINT('',(91.9999999999963,-67.0000000000031,85.));
#1635=CARTESIAN_POINT('',(88.9999999999963,66.9999999999977,85.));
#1636=CARTESIAN_POINT('Origin',(88.9999999999963,63.9999999999977,85.));
#1637=CARTESIAN_POINT('',(-88.9999999999907,66.9999999999978,85.));
#1638=CARTESIAN_POINT('',(91.9999999999963,66.9999999999977,85.));
#1639=CARTESIAN_POINT('',(-91.9999999999907,63.9999999999979,85.));
#1640=CARTESIAN_POINT('Origin',(-88.9999999999907,63.9999999999978,85.));
#1641=CARTESIAN_POINT('',(-91.9999999999919,-64.0000000000023,85.));
#1642=CARTESIAN_POINT('',(-91.9999999999907,66.9999999999978,85.));
#1643=CARTESIAN_POINT('',(-88.9999999999919,-67.0000000000023,85.));
#1644=CARTESIAN_POINT('Origin',(-88.9999999999919,-64.0000000000023,85.));
#1645=CARTESIAN_POINT('',(-91.999999999992,-67.0000000000023,85.));
#1646=CARTESIAN_POINT('',(-84.8999999999796,-58.5000000000023,85.));
#1647=CARTESIAN_POINT('Origin',(-83.4999999999796,-58.5000000000023,85.));
#1648=CARTESIAN_POINT('',(-84.8999999999682,58.4999999999977,85.));
#1649=CARTESIAN_POINT('Origin',(-83.4999999999682,58.4999999999977,85.));
#1650=CARTESIAN_POINT('',(82.1000000000107,-58.5000000000023,85.));
#1651=CARTESIAN_POINT('Origin',(83.5000000000107,-58.5000000000023,85.));
#1652=CARTESIAN_POINT('',(82.1000000000131,58.4999999999977,85.));
#1653=CARTESIAN_POINT('Origin',(83.5000000000131,58.4999999999977,85.));
#1654=CARTESIAN_POINT('',(-86.999999999998,-55.0000000000023,85.));
#1655=CARTESIAN_POINT('',(-86.9999999999873,54.9999999999977,85.));
#1656=CARTESIAN_POINT('',(-86.9999999999873,54.9999999999977,85.));
#1657=CARTESIAN_POINT('',(-79.9999999999854,54.9999999999977,85.));
#1658=CARTESIAN_POINT('',(-79.9999999999854,54.9999999999977,85.));
#1659=CARTESIAN_POINT('',(-79.9999999999907,61.9999999999977,85.));
#1660=CARTESIAN_POINT('',(-79.9999999999907,61.9999999999977,85.));
#1661=CARTESIAN_POINT('',(79.9999999999963,61.9999999999977,85.));
#1662=CARTESIAN_POINT('',(86.9999999999963,61.9999999999977,85.));
#1663=CARTESIAN_POINT('',(79.999999999996,54.9999999999977,85.));
#1664=CARTESIAN_POINT('',(79.9999999999963,61.9999999999977,85.));
#1665=CARTESIAN_POINT('',(86.9999999999962,54.9999999999977,85.));
#1666=CARTESIAN_POINT('',(79.999999999996,54.9999999999977,85.));
#1667=CARTESIAN_POINT('',(86.9999999999961,-55.0000000000023,85.));
#1668=CARTESIAN_POINT('',(86.9999999999961,-55.0000000000023,85.));
#1669=CARTESIAN_POINT('',(80.000000000033,-55.0000000000023,85.));
#1670=CARTESIAN_POINT('',(80.000000000033,-55.0000000000023,85.));
#1671=CARTESIAN_POINT('',(79.9999999999963,-62.0000000000023,85.));
#1672=CARTESIAN_POINT('',(79.9999999999963,-62.0000000000023,85.));
#1673=CARTESIAN_POINT('',(-80.0000000000037,-62.0000000000023,85.));
#1674=CARTESIAN_POINT('',(-87.0000000000037,-62.0000000000023,85.));
#1675=CARTESIAN_POINT('',(-79.9999999999772,-55.0000000000023,85.));
#1676=CARTESIAN_POINT('',(-80.0000000000037,-62.0000000000023,85.));
#1677=CARTESIAN_POINT('',(-79.9999999999772,-55.0000000000023,85.));
#1678=CARTESIAN_POINT('Origin',(91.9999999999963,-67.0000000000031,0.));
#1679=CARTESIAN_POINT('',(91.9999999999963,63.9999999999977,0.));
#1680=CARTESIAN_POINT('',(91.9999999999963,-67.0000000000031,0.));
#1681=CARTESIAN_POINT('',(91.9999999999963,63.9999999999977,0.));
#1682=CARTESIAN_POINT('Origin',(88.9999999999963,63.9999999999977,0.));
#1683=CARTESIAN_POINT('',(88.9999999999963,66.9999999999977,0.));
#1684=CARTESIAN_POINT('Origin',(88.9999999999963,63.9999999999977,0.));
#1685=CARTESIAN_POINT('',(88.9999999999963,66.9999999999977,0.));
#1686=CARTESIAN_POINT('Origin',(-88.9999999999919,-64.0000000000023,0.));
#1687=CARTESIAN_POINT('',(-91.9999999999919,-64.0000000000023,0.));
#1688=CARTESIAN_POINT('',(-91.9999999999919,-64.0000000000023,0.));
#1689=CARTESIAN_POINT('',(-88.9999999999919,-67.0000000000023,0.));
#1690=CARTESIAN_POINT('Origin',(-88.9999999999919,-64.0000000000023,0.));
#1691=CARTESIAN_POINT('',(-88.9999999999919,-67.0000000000023,0.));
#1692=CARTESIAN_POINT('Origin',(-91.9999999999907,66.9999999999978,0.));
#1693=CARTESIAN_POINT('',(-91.9999999999907,63.9999999999979,0.));
#1694=CARTESIAN_POINT('',(-91.9999999999907,63.9999999999979,0.));
#1695=CARTESIAN_POINT('',(-91.9999999999907,66.9999999999978,0.));
#1696=CARTESIAN_POINT('Origin',(-88.9999999999907,63.9999999999978,0.));
#1697=CARTESIAN_POINT('',(-88.9999999999907,66.9999999999978,0.));
#1698=CARTESIAN_POINT('',(-88.9999999999907,66.9999999999978,0.));
#1699=CARTESIAN_POINT('Origin',(-88.9999999999907,63.9999999999978,0.));
#1700=CARTESIAN_POINT('Origin',(-80.0000000000037,-62.0000000000023,0.));
#1701=CARTESIAN_POINT('',(-79.9999999999772,-55.0000000000023,5.));
#1702=CARTESIAN_POINT('',(-80.0000000000037,-62.0000000000023,5.));
#1703=CARTESIAN_POINT('',(-79.9999999998864,-30.9999999998509,5.));
#1704=CARTESIAN_POINT('',(-79.9999999999772,-55.0000000000023,0.));
#1705=CARTESIAN_POINT('',(-80.0000000000037,-62.0000000000023,0.));
#1706=CARTESIAN_POINT('Origin',(-79.9999999999772,-55.0000000000023,0.));
#1707=CARTESIAN_POINT('',(-86.999999999998,-55.0000000000023,5.));
#1708=CARTESIAN_POINT('',(-39.999999999988,-55.0000000000023,5.));
#1709=CARTESIAN_POINT('',(-86.9999999999337,-55.0000000000023,0.));
#1710=CARTESIAN_POINT('Origin',(-83.4999999999796,-58.5000000000023,0.));
#1711=CARTESIAN_POINT('',(-84.8999999999796,-58.5000000000023,5.));
#1712=CARTESIAN_POINT('',(-84.8999999999796,-58.5000000000023,0.));
#1713=CARTESIAN_POINT('Origin',(-83.4999999999796,-58.5000000000023,5.));
#1714=CARTESIAN_POINT('Origin',(-86.9999999999303,-62.0000000000023,0.));
#1715=CARTESIAN_POINT('',(-86.9999999999873,54.9999999999977,5.));
#1716=CARTESIAN_POINT('',(-86.9999999999873,54.9999999999977,5.));
#1717=CARTESIAN_POINT('',(-86.9999999999873,54.9999999999977,0.));
#1718=CARTESIAN_POINT('Origin',(1.17239551400417E-12,-2.30038210702332E-12,
5.));
#1719=CARTESIAN_POINT('Origin',(-83.4999999999682,58.4999999999977,0.));
#1720=CARTESIAN_POINT('',(-84.8999999999682,58.4999999999977,5.));
#1721=CARTESIAN_POINT('',(-84.8999999999682,58.4999999999977,0.));
#1722=CARTESIAN_POINT('Origin',(-83.4999999999682,58.4999999999977,5.));
#1723=CARTESIAN_POINT('Origin',(-79.9999999999854,54.9999999999977,0.));
#1724=CARTESIAN_POINT('',(-79.9999999999907,61.9999999999977,5.));
#1725=CARTESIAN_POINT('',(-79.9999999999854,54.9999999999977,5.));
#1726=CARTESIAN_POINT('',(-79.9999999999648,27.4999999999677,5.));
#1727=CARTESIAN_POINT('',(-79.9999999999907,61.9999999999985,0.));
#1728=CARTESIAN_POINT('',(-79.9999999999854,54.9999999999977,0.));
#1729=CARTESIAN_POINT('Origin',(-86.9999999999873,54.9999999999977,0.));
#1730=CARTESIAN_POINT('',(-43.4999999999931,54.9999999999978,5.));
#1731=CARTESIAN_POINT('Origin',(-86.9999999999907,61.9999999999986,0.));
#1732=CARTESIAN_POINT('',(79.9999999999963,61.9999999999977,5.));
#1733=CARTESIAN_POINT('',(86.9999999999963,61.9999999999977,5.));
#1734=CARTESIAN_POINT('',(79.9999999999963,61.9999999999977,0.));
#1735=CARTESIAN_POINT('Origin',(1.17239551400417E-12,-2.30038210702332E-12,
5.));
#1736=CARTESIAN_POINT('',(79.9999999999963,-62.0000000000023,5.));
#1737=CARTESIAN_POINT('',(-87.0000000000037,-62.0000000000023,5.));
#1738=CARTESIAN_POINT('',(80.000000000033,-55.0000000000023,5.));
#1739=CARTESIAN_POINT('',(80.000000000177,-27.5000000002118,5.));
#1740=CARTESIAN_POINT('',(86.9999999999961,-55.0000000000023,5.));
#1741=CARTESIAN_POINT('',(43.4999999999986,-55.0000000000022,5.));
#1742=CARTESIAN_POINT('',(86.9999999999922,54.9999999999977,5.));
#1743=CARTESIAN_POINT('',(86.9999999999961,-55.0000000000023,5.));
#1744=CARTESIAN_POINT('',(79.999999999996,54.9999999999977,5.));
#1745=CARTESIAN_POINT('',(39.9999999999986,54.9999999999978,5.));
#1746=CARTESIAN_POINT('',(79.9999999999951,30.9999999999962,5.));
#1747=CARTESIAN_POINT('Origin',(83.5000000000107,-58.5000000000023,0.));
#1748=CARTESIAN_POINT('',(82.1000000000107,-58.5000000000023,5.));
#1749=CARTESIAN_POINT('',(82.1000000000107,-58.5000000000023,0.));
#1750=CARTESIAN_POINT('Origin',(83.5000000000107,-58.5000000000023,5.));
#1751=CARTESIAN_POINT('Origin',(80.000000000033,-55.0000000000023,0.));
#1752=CARTESIAN_POINT('',(79.9999999999963,-62.0000000000011,0.));
#1753=CARTESIAN_POINT('',(80.000000000033,-55.0000000000023,0.));
#1754=CARTESIAN_POINT('Origin',(86.9999999999961,-55.0000000000023,0.));
#1755=CARTESIAN_POINT('',(86.9999999999961,-55.0000000000023,0.));
#1756=CARTESIAN_POINT('Origin',(86.9999999999963,-62.000000000001,0.));
#1757=CARTESIAN_POINT('Origin',(1.17239551400417E-12,-2.30038210702332E-12,
5.));
#1758=CARTESIAN_POINT('Origin',(79.999999999996,54.9999999999977,0.));
#1759=CARTESIAN_POINT('',(86.9999999999922,54.9999999999977,0.));
#1760=CARTESIAN_POINT('',(79.999999999996,54.9999999999977,0.));
#1761=CARTESIAN_POINT('Origin',(83.5000000000131,58.4999999999977,0.));
#1762=CARTESIAN_POINT('',(82.1000000000131,58.4999999999977,5.));
#1763=CARTESIAN_POINT('',(82.1000000000131,58.4999999999977,0.));
#1764=CARTESIAN_POINT('Origin',(83.5000000000131,58.4999999999977,5.));
#1765=CARTESIAN_POINT('Origin',(79.9999999999963,61.9999999999977,0.));
#1766=CARTESIAN_POINT('Origin',(1.17239551400417E-12,-2.30038210702332E-12,
5.));
#1767=CARTESIAN_POINT('Origin',(86.9999999999919,61.9999999999977,0.));
#1768=CARTESIAN_POINT('Origin',(91.9999999999963,66.9999999999977,0.));
#1769=CARTESIAN_POINT('',(91.9999999999963,66.9999999999977,0.));
#1770=CARTESIAN_POINT('Origin',(-91.999999999992,-67.0000000000023,0.));
#1771=CARTESIAN_POINT('',(-91.999999999992,-67.0000000000023,0.));
#1772=CARTESIAN_POINT('Origin',(1.17239551400417E-12,-2.30038210702332E-12,
5.));
#1773=CARTESIAN_POINT('Origin',(1.17239551400417E-12,-2.30038210702332E-12,
0.));
#1774=CARTESIAN_POINT('Origin',(105.000000000043,-34.0000000000023,0.));
#1775=CARTESIAN_POINT('',(105.000000000043,-32.0000000000023,10.));
#1776=CARTESIAN_POINT('',(107.000000000043,-34.0000000000105,10.));
#1777=CARTESIAN_POINT('Origin',(105.000000000043,-34.0000000000023,10.));
#1778=CARTESIAN_POINT('',(107.000000000043,-34.0000000000105,0.));
#1779=CARTESIAN_POINT('',(107.000000000043,-34.0000000000105,0.));
#1780=CARTESIAN_POINT('',(105.000000000043,-32.0000000000023,0.));
#1781=CARTESIAN_POINT('Origin',(105.000000000043,-34.0000000000023,0.));
#1782=CARTESIAN_POINT('',(105.000000000043,-32.0000000000023,0.));
#1783=CARTESIAN_POINT('Origin',(107.000000000051,-32.0000000000023,0.));
#1784=CARTESIAN_POINT('',(92.0000000000512,-32.0000000000023,0.));
#1785=CARTESIAN_POINT('',(107.000000000051,-32.0000000000023,0.));
#1786=CARTESIAN_POINT('',(92.0000000000512,-32.0000000000023,10.));
#1787=CARTESIAN_POINT('',(92.0000000000512,-32.0000000000023,0.));
#1788=CARTESIAN_POINT('',(107.000000000051,-32.0000000000023,10.));
#1789=CARTESIAN_POINT('Origin',(99.5000000000206,-39.5000000000023,0.));
#1790=CARTESIAN_POINT('',(106.999999999998,-45.0000000000105,0.));
#1791=CARTESIAN_POINT('',(106.99999999999,-47.0000000000023,0.));
#1792=CARTESIAN_POINT('',(104.999999999998,-47.0000000000023,0.));
#1793=CARTESIAN_POINT('Origin',(104.999999999998,-45.0000000000023,0.));
#1794=CARTESIAN_POINT('',(91.9999999999899,-47.0000000000023,0.));
#1795=CARTESIAN_POINT('',(91.9999999999899,-47.0000000000023,0.));
#1796=CARTESIAN_POINT('',(92.0000000000512,-32.0000000000023,0.));
#1797=CARTESIAN_POINT('Origin',(104.999999999998,-45.0000000000023,0.));
#1798=CARTESIAN_POINT('',(106.999999999998,-45.0000000000105,10.));
#1799=CARTESIAN_POINT('',(104.999999999998,-47.0000000000023,10.));
#1800=CARTESIAN_POINT('Origin',(104.999999999998,-45.0000000000023,10.));
#1801=CARTESIAN_POINT('',(104.999999999998,-47.0000000000023,0.));
#1802=CARTESIAN_POINT('',(106.999999999998,-45.0000000000105,0.));
#1803=CARTESIAN_POINT('Origin',(91.9999999999899,-47.0000000000023,0.));
#1804=CARTESIAN_POINT('',(91.9999999999899,-47.0000000000023,10.));
#1805=CARTESIAN_POINT('',(91.9999999999899,-47.0000000000023,10.));
#1806=CARTESIAN_POINT('',(91.9999999999899,-47.0000000000023,0.));
#1807=CARTESIAN_POINT('Origin',(106.99999999999,-47.0000000000023,0.));
#1808=CARTESIAN_POINT('',(106.99999999999,-47.0000000000023,10.));
#1809=CARTESIAN_POINT('Origin',(92.0000000000512,-32.0000000000023,0.));
#1810=CARTESIAN_POINT('',(92.0000000000512,-32.0000000000023,10.));
#1811=CARTESIAN_POINT('Origin',(99.5000000000206,-39.5000000000023,10.));
#1812=CARTESIAN_POINT('Origin',(-104.999999999992,-45.0000000000007,0.));
#1813=CARTESIAN_POINT('',(-104.999999999992,-47.0000000000007,10.));
#1814=CARTESIAN_POINT('',(-106.999999999992,-45.0000000000007,10.));
#1815=CARTESIAN_POINT('Origin',(-104.999999999992,-45.0000000000007,10.));
#1816=CARTESIAN_POINT('',(-106.999999999992,-45.0000000000007,0.));
#1817=CARTESIAN_POINT('',(-106.999999999992,-45.0000000000007,0.));
#1818=CARTESIAN_POINT('',(-104.999999999992,-47.0000000000007,0.));
#1819=CARTESIAN_POINT('Origin',(-104.999999999992,-45.0000000000007,0.));
#1820=CARTESIAN_POINT('',(-104.999999999992,-47.0000000000007,0.));
#1821=CARTESIAN_POINT('Origin',(-106.999999999992,-47.0000000000004,0.));
#1822=CARTESIAN_POINT('',(-91.9999999999916,-47.0000000000023,0.));
#1823=CARTESIAN_POINT('',(-91.9999999999916,-47.0000000000023,0.));
#1824=CARTESIAN_POINT('',(-91.9999999999916,-47.0000000000023,10.));
#1825=CARTESIAN_POINT('',(-91.9999999999916,-47.0000000000023,0.));
#1826=CARTESIAN_POINT('',(-91.9999999999916,-47.0000000000023,10.));
#1827=CARTESIAN_POINT('Origin',(-99.4999999999916,-39.5000000000138,0.));
#1828=CARTESIAN_POINT('',(-106.999999999992,-34.0000000000253,0.));
#1829=CARTESIAN_POINT('',(-106.999999999992,-47.0000000000004,0.));
#1830=CARTESIAN_POINT('',(-104.999999999992,-32.0000000000253,0.));
#1831=CARTESIAN_POINT('Origin',(-104.999999999992,-34.0000000000253,0.));
#1832=CARTESIAN_POINT('',(-91.9999999999917,-32.0000000000253,0.));
#1833=CARTESIAN_POINT('',(-106.999999999992,-32.0000000000253,0.));
#1834=CARTESIAN_POINT('',(-91.9999999999917,-32.0000000000253,0.));
#1835=CARTESIAN_POINT('Origin',(-104.999999999992,-34.0000000000253,0.));
#1836=CARTESIAN_POINT('',(-106.999999999992,-34.0000000000253,10.));
#1837=CARTESIAN_POINT('',(-104.999999999992,-32.0000000000253,10.));
#1838=CARTESIAN_POINT('Origin',(-104.999999999992,-34.0000000000253,10.));
#1839=CARTESIAN_POINT('',(-104.999999999992,-32.0000000000253,0.));
#1840=CARTESIAN_POINT('',(-106.999999999992,-34.0000000000253,0.));
#1841=CARTESIAN_POINT('Origin',(-91.9999999999917,-32.0000000000253,0.));
#1842=CARTESIAN_POINT('',(-91.9999999999917,-32.0000000000253,10.));
#1843=CARTESIAN_POINT('',(-106.999999999992,-32.0000000000253,10.));
#1844=CARTESIAN_POINT('',(-91.9999999999917,-32.0000000000253,0.));
#1845=CARTESIAN_POINT('Origin',(-91.9999999999916,-47.0000000000023,0.));
#1846=CARTESIAN_POINT('',(-91.9999999999917,-32.0000000000253,10.));
#1847=CARTESIAN_POINT('Origin',(-106.999999999992,-32.0000000000253,0.));
#1848=CARTESIAN_POINT('',(-106.999999999992,-47.0000000000004,10.));
#1849=CARTESIAN_POINT('Origin',(-99.4999999999916,-39.5000000000138,10.));
#1850=CARTESIAN_POINT('Origin',(104.999999999996,44.9999999999977,0.));
#1851=CARTESIAN_POINT('',(104.999999999996,46.9999999999977,10.));
#1852=CARTESIAN_POINT('',(106.999999999996,44.9999999999977,10.));
#1853=CARTESIAN_POINT('Origin',(104.999999999996,44.9999999999977,10.));
#1854=CARTESIAN_POINT('',(106.999999999996,44.9999999999977,0.));
#1855=CARTESIAN_POINT('',(106.999999999996,44.9999999999977,0.));
#1856=CARTESIAN_POINT('',(104.999999999996,46.9999999999977,0.));
#1857=CARTESIAN_POINT('Origin',(104.999999999996,44.9999999999977,0.));
#1858=CARTESIAN_POINT('',(104.999999999996,46.9999999999977,0.));
#1859=CARTESIAN_POINT('Origin',(106.999999999996,46.9999999999977,0.));
#1860=CARTESIAN_POINT('',(91.9999999999963,46.9999999999977,0.));
#1861=CARTESIAN_POINT('',(91.9999999999963,46.9999999999977,0.));
#1862=CARTESIAN_POINT('',(91.9999999999963,46.9999999999977,10.));
#1863=CARTESIAN_POINT('',(91.9999999999963,46.9999999999977,0.));
#1864=CARTESIAN_POINT('',(91.9999999999963,46.9999999999977,10.));
#1865=CARTESIAN_POINT('Origin',(99.4999999999963,39.4999999999977,0.));
#1866=CARTESIAN_POINT('',(106.999999999996,33.9999999999977,0.));
#1867=CARTESIAN_POINT('',(106.999999999996,46.9999999999977,0.));
#1868=CARTESIAN_POINT('',(104.999999999996,31.9999999999977,0.));
#1869=CARTESIAN_POINT('Origin',(104.999999999996,33.9999999999977,0.));
#1870=CARTESIAN_POINT('',(91.9999999999963,31.9999999999977,0.));
#1871=CARTESIAN_POINT('',(106.999999999996,31.9999999999977,0.));
#1872=CARTESIAN_POINT('',(91.9999999999963,31.9999999999977,0.));
#1873=CARTESIAN_POINT('Origin',(104.999999999996,33.9999999999977,0.));
#1874=CARTESIAN_POINT('',(106.999999999996,33.9999999999977,10.));
#1875=CARTESIAN_POINT('',(104.999999999996,31.9999999999977,10.));
#1876=CARTESIAN_POINT('Origin',(104.999999999996,33.9999999999977,10.));
#1877=CARTESIAN_POINT('',(104.999999999996,31.9999999999977,0.));
#1878=CARTESIAN_POINT('',(106.999999999996,33.9999999999977,0.));
#1879=CARTESIAN_POINT('Origin',(91.9999999999963,31.9999999999977,0.));
#1880=CARTESIAN_POINT('',(91.9999999999963,31.9999999999977,10.));
#1881=CARTESIAN_POINT('',(106.999999999996,31.9999999999977,10.));
#1882=CARTESIAN_POINT('',(91.9999999999963,31.9999999999977,0.));
#1883=CARTESIAN_POINT('Origin',(91.9999999999963,46.9999999999977,0.));
#1884=CARTESIAN_POINT('',(91.9999999999963,31.9999999999977,10.));
#1885=CARTESIAN_POINT('Origin',(106.999999999996,31.9999999999977,0.));
#1886=CARTESIAN_POINT('',(106.999999999996,46.9999999999977,10.));
#1887=CARTESIAN_POINT('Origin',(99.4999999999963,39.4999999999977,10.));
#1888=CARTESIAN_POINT('Origin',(-104.999999999991,33.9999999999977,0.));
#1889=CARTESIAN_POINT('',(-104.999999999991,31.9999999999977,10.));
#1890=CARTESIAN_POINT('',(-106.999999999991,33.9999999999977,10.));
#1891=CARTESIAN_POINT('Origin',(-104.999999999991,33.9999999999977,10.));
#1892=CARTESIAN_POINT('',(-106.999999999991,33.9999999999977,0.));
#1893=CARTESIAN_POINT('',(-106.999999999991,33.9999999999977,0.));
#1894=CARTESIAN_POINT('',(-104.999999999991,31.9999999999977,0.));
#1895=CARTESIAN_POINT('Origin',(-104.999999999991,33.9999999999977,0.));
#1896=CARTESIAN_POINT('',(-104.999999999991,31.9999999999977,0.));
#1897=CARTESIAN_POINT('Origin',(-106.999999999991,31.9999999999977,0.));
#1898=CARTESIAN_POINT('',(-91.9999999999909,31.9999999999977,0.));
#1899=CARTESIAN_POINT('',(-106.999999999991,31.9999999999977,0.));
#1900=CARTESIAN_POINT('',(-91.9999999999909,31.9999999999977,10.));
#1901=CARTESIAN_POINT('',(-91.9999999999909,31.9999999999977,0.));
#1902=CARTESIAN_POINT('',(-106.999999999991,31.9999999999977,10.));
#1903=CARTESIAN_POINT('Origin',(-99.4999999999909,39.4999999999977,0.));
#1904=CARTESIAN_POINT('',(-106.999999999991,44.9999999999977,0.));
#1905=CARTESIAN_POINT('',(-106.999999999991,46.9999999999977,0.));
#1906=CARTESIAN_POINT('',(-104.999999999991,46.9999999999977,0.));
#1907=CARTESIAN_POINT('Origin',(-104.999999999991,44.9999999999977,0.));
#1908=CARTESIAN_POINT('',(-91.9999999999909,46.9999999999977,0.));
#1909=CARTESIAN_POINT('',(-91.9999999999909,46.9999999999977,0.));
#1910=CARTESIAN_POINT('',(-91.9999999999909,31.9999999999977,0.));
#1911=CARTESIAN_POINT('Origin',(-104.999999999991,44.9999999999977,0.));
#1912=CARTESIAN_POINT('',(-106.999999999991,44.9999999999977,10.));
#1913=CARTESIAN_POINT('',(-104.999999999991,46.9999999999977,10.));
#1914=CARTESIAN_POINT('Origin',(-104.999999999991,44.9999999999977,10.));
#1915=CARTESIAN_POINT('',(-104.999999999991,46.9999999999977,0.));
#1916=CARTESIAN_POINT('',(-106.999999999991,44.9999999999977,0.));
#1917=CARTESIAN_POINT('Origin',(-91.9999999999909,46.9999999999977,0.));
#1918=CARTESIAN_POINT('',(-91.9999999999909,46.9999999999977,10.));
#1919=CARTESIAN_POINT('',(-91.9999999999909,46.9999999999977,10.));
#1920=CARTESIAN_POINT('',(-91.9999999999909,46.9999999999977,0.));
#1921=CARTESIAN_POINT('Origin',(-106.999999999991,46.9999999999977,0.));
#1922=CARTESIAN_POINT('',(-106.999999999991,46.9999999999977,10.));
#1923=CARTESIAN_POINT('Origin',(-91.9999999999909,31.9999999999977,0.));
#1924=CARTESIAN_POINT('',(-91.9999999999909,31.9999999999977,10.));
#1925=CARTESIAN_POINT('Origin',(-99.4999999999909,39.4999999999977,10.));
#1926=UNCERTAINTY_MEASURE_WITH_UNIT(LENGTH_MEASURE(0.01),#1930,
'DISTANCE_ACCURACY_VALUE',
'Maximum model space distance between geometric entities at asserted c
onnectivities');
#1927=UNCERTAINTY_MEASURE_WITH_UNIT(LENGTH_MEASURE(0.01),#1930,
'DISTANCE_ACCURACY_VALUE',
'Maximum model space distance between geometric entities at asserted c
onnectivities');
#1928=(
GEOMETRIC_REPRESENTATION_CONTEXT(3)
GLOBAL_UNCERTAINTY_ASSIGNED_CONTEXT((#1926))
GLOBAL_UNIT_ASSIGNED_CONTEXT((#1930,#1932,#1933))
REPRESENTATION_CONTEXT('','3D')
);
#1929=(
GEOMETRIC_REPRESENTATION_CONTEXT(3)
GLOBAL_UNCERTAINTY_ASSIGNED_CONTEXT((#1927))
GLOBAL_UNIT_ASSIGNED_CONTEXT((#1930,#1932,#1933))
REPRESENTATION_CONTEXT('','3D')
);
#1930=(
LENGTH_UNIT()
NAMED_UNIT(*)
SI_UNIT(.MILLI.,.METRE.)
);
#1931=(
LENGTH_UNIT()
NAMED_UNIT(*)
SI_UNIT($,.METRE.)
);
#1932=(
NAMED_UNIT(*)
PLANE_ANGLE_UNIT()
SI_UNIT($,.RADIAN.)
);
#1933=(
NAMED_UNIT(*)
SI_UNIT($,.STERADIAN.)
SOLID_ANGLE_UNIT()
);
#1934=SHAPE_DEFINITION_REPRESENTATION(#1935,#1936);
#1935=PRODUCT_DEFINITION_SHAPE('',$,#1938);
#1936=SHAPE_REPRESENTATION('',(#1174),#1928);
#1937=PRODUCT_DEFINITION_CONTEXT('part definition',#1942,'design');
#1938=PRODUCT_DEFINITION('2026-05-30-11-14-08-457','box design 3',#1939,
#1937);
#1939=PRODUCT_DEFINITION_FORMATION('',$,#1944);
#1940=PRODUCT_RELATED_PRODUCT_CATEGORY('box design 3','box design 3',(#1944));
#1941=APPLICATION_PROTOCOL_DEFINITION('international standard',
'automotive_design',2009,#1942);
#1942=APPLICATION_CONTEXT(
'Core Data for Automotive Mechanical Design Process');
#1943=PRODUCT_CONTEXT('part definition',#1942,'mechanical');
#1944=PRODUCT('2026-05-30-11-14-08-457','box design 3',$,(#1943));
#1945=PRESENTATION_STYLE_ASSIGNMENT((#1946));
#1946=SURFACE_STYLE_USAGE(.BOTH.,#1947);
#1947=SURFACE_SIDE_STYLE('',(#1948));
#1948=SURFACE_STYLE_FILL_AREA(#1949);
#1949=FILL_AREA_STYLE('Steel - Satin',(#1950));
#1950=FILL_AREA_STYLE_COLOUR('Steel - Satin',#1951);
#1951=COLOUR_RGB('Steel - Satin',0.627450980392157,0.627450980392157,0.627450980392157);
ENDSEC;
END-ISO-10303-21;
